M48
; DRILL file {KiCad 6.0.0-d3dd2cf0fa~116~ubuntu21.10.1} date Wed Jan 19 11:25:04 2022
; FORMAT={-:-/ absolute / metric / decimal}
; #@! TF.CreationDate,2022-01-19T11:25:04+00:00
; #@! TF.GenerationSoftware,Kicad,Pcbnew,6.0.0-d3dd2cf0fa~116~ubuntu21.10.1
; #@! TF.FileFunction,MixedPlating,1,4
FMAT,2
METRIC
; #@! TA.AperFunction,Plated,PTH,ViaDrill
T1C0.400
; #@! TA.AperFunction,Plated,PTH,ComponentDrill
T2C1.000
; #@! TA.AperFunction,Plated,PTH,ComponentDrill
T3C1.270
; #@! TA.AperFunction,Plated,PTH,ComponentDrill
T4C1.524
; #@! TA.AperFunction,Plated,PTH,ComponentDrill
T5C3.000
; #@! TA.AperFunction,Plated,PTH,ComponentDrill
T6C3.200
%
G90
G05
T1
X73.5Y-79.5
X73.5Y-99.5
X73.5Y-119.5
X73.5Y-139.5
X93.5Y-79.5
X93.5Y-99.5
X93.5Y-119.5
X93.5Y-139.5
X135.325Y-65.575
X135.325Y-85.575
X135.325Y-105.575
X135.325Y-123.075
X135.325Y-125.575
X136.0Y-128.184
X136.174Y-68.184
X136.174Y-88.184
X136.174Y-108.184
X160.0Y-65.75
X160.0Y-85.75
X160.0Y-105.75
X160.0Y-123.0
X160.0Y-125.75
X161.0Y-68.375
X161.0Y-88.5
X161.0Y-108.5
X161.0Y-128.375
T2
X174.11Y-87.49
X174.11Y-90.03
X174.11Y-92.57
X174.11Y-95.11
X174.11Y-97.65
X174.11Y-100.19
X174.11Y-102.73
X174.11Y-105.27
X174.11Y-107.81
X174.11Y-110.35
X174.11Y-112.89
X174.11Y-115.43
X174.11Y-117.97
X174.11Y-120.51
X174.11Y-123.05
X174.11Y-125.59
X174.11Y-128.13
X174.11Y-130.67
X174.11Y-133.21
X174.11Y-135.75
X176.65Y-87.49
X176.65Y-90.03
X176.65Y-92.57
X176.65Y-95.11
X176.65Y-97.65
X176.65Y-100.19
X176.65Y-102.73
X176.65Y-105.27
X176.65Y-107.81
X176.65Y-110.35
X176.65Y-112.89
X176.65Y-115.43
X176.65Y-117.97
X176.65Y-120.51
X176.65Y-123.05
X176.65Y-125.59
X176.65Y-128.13
X176.65Y-130.67
X176.65Y-133.21
X176.65Y-135.75
T3
X125.0Y-70.0
X125.0Y-90.0
X125.0Y-110.0
X125.0Y-130.0
X150.0Y-70.0
X150.0Y-90.0
X150.0Y-110.0
X150.0Y-130.0
T4
X121.825Y-66.825
X121.825Y-73.175
X121.825Y-86.825
X121.825Y-93.175
X121.825Y-106.825
X121.825Y-113.175
X121.825Y-126.825
X121.825Y-133.175
X128.175Y-66.825
X128.175Y-73.175
X128.175Y-86.825
X128.175Y-93.175
X128.175Y-106.825
X128.175Y-113.175
X128.175Y-126.825
X128.175Y-133.175
X146.825Y-66.825
X146.825Y-73.175
X146.825Y-86.825
X146.825Y-93.175
X146.825Y-106.825
X146.825Y-113.175
X146.825Y-126.825
X146.825Y-133.175
X153.175Y-66.825
X153.175Y-73.175
X153.175Y-86.825
X153.175Y-93.175
X153.175Y-106.825
X153.175Y-113.175
X153.175Y-126.825
X153.175Y-133.175
T5
X55.0Y-80.0
X55.0Y-100.0
X55.0Y-120.0
X75.0Y-70.0
X75.0Y-90.0
X75.0Y-110.0
X75.0Y-130.0
X82.2Y-70.0
X82.2Y-90.0
X82.2Y-110.0
X82.2Y-130.0
X95.0Y-70.0
X95.0Y-90.0
X95.0Y-110.0
X95.0Y-130.0
X102.2Y-70.0
X102.2Y-90.0
X102.2Y-110.0
X102.2Y-130.0
T6
X55.0Y-55.0
X55.0Y-145.0
X120.0Y-55.0
X120.0Y-145.0
X175.0Y-55.35
X175.0Y-145.0
T0
M30
