G04 #@! TF.GenerationSoftware,KiCad,Pcbnew,6.0.0-d3dd2cf0fa~116~ubuntu21.10.1*
G04 #@! TF.CreationDate,2022-01-19T11:25:04+00:00*
G04 #@! TF.ProjectId,latbox_cycloneV,6c617462-6f78-45f6-9379-636c6f6e6556,rev?*
G04 #@! TF.SameCoordinates,Original*
G04 #@! TF.FileFunction,Soldermask,Top*
G04 #@! TF.FilePolarity,Negative*
%FSLAX46Y46*%
G04 Gerber Fmt 4.6, Leading zero omitted, Abs format (unit mm)*
G04 Created by KiCad (PCBNEW 6.0.0-d3dd2cf0fa~116~ubuntu21.10.1) date 2022-01-19 11:25:04*
%MOMM*%
%LPD*%
G01*
G04 APERTURE LIST*
%ADD10C,5.500000*%
%ADD11R,0.700000X0.600000*%
%ADD12C,4.000000*%
%ADD13R,0.400000X0.650000*%
%ADD14C,3.556000*%
%ADD15C,3.810000*%
%ADD16R,1.700000X1.700000*%
%ADD17O,1.700000X1.700000*%
G04 APERTURE END LIST*
D10*
X55000000Y-55000000D03*
D11*
X136335000Y-71225000D03*
X136335000Y-69825000D03*
G36*
G01*
X74210000Y-79685000D02*
X74210000Y-79315000D01*
G75*
G02*
X74345000Y-79180000I135000J0D01*
G01*
X74615000Y-79180000D01*
G75*
G02*
X74750000Y-79315000I0J-135000D01*
G01*
X74750000Y-79685000D01*
G75*
G02*
X74615000Y-79820000I-135000J0D01*
G01*
X74345000Y-79820000D01*
G75*
G02*
X74210000Y-79685000I0J135000D01*
G01*
G37*
G36*
G01*
X75230000Y-79685000D02*
X75230000Y-79315000D01*
G75*
G02*
X75365000Y-79180000I135000J0D01*
G01*
X75635000Y-79180000D01*
G75*
G02*
X75770000Y-79315000I0J-135000D01*
G01*
X75770000Y-79685000D01*
G75*
G02*
X75635000Y-79820000I-135000J0D01*
G01*
X75365000Y-79820000D01*
G75*
G02*
X75230000Y-79685000I0J135000D01*
G01*
G37*
G36*
G01*
X93000000Y-111750000D02*
X93000000Y-108250000D01*
G75*
G02*
X93250000Y-108000000I250000J0D01*
G01*
X96750000Y-108000000D01*
G75*
G02*
X97000000Y-108250000I0J-250000D01*
G01*
X97000000Y-111750000D01*
G75*
G02*
X96750000Y-112000000I-250000J0D01*
G01*
X93250000Y-112000000D01*
G75*
G02*
X93000000Y-111750000I0J250000D01*
G01*
G37*
D12*
X102200000Y-110000000D03*
D13*
X137175000Y-108275000D03*
X137825000Y-108275000D03*
X138475000Y-108275000D03*
X138475000Y-106375000D03*
X137175000Y-106375000D03*
G36*
G01*
X72790000Y-119315000D02*
X72790000Y-119685000D01*
G75*
G02*
X72655000Y-119820000I-135000J0D01*
G01*
X72385000Y-119820000D01*
G75*
G02*
X72250000Y-119685000I0J135000D01*
G01*
X72250000Y-119315000D01*
G75*
G02*
X72385000Y-119180000I135000J0D01*
G01*
X72655000Y-119180000D01*
G75*
G02*
X72790000Y-119315000I0J-135000D01*
G01*
G37*
G36*
G01*
X71770000Y-119315000D02*
X71770000Y-119685000D01*
G75*
G02*
X71635000Y-119820000I-135000J0D01*
G01*
X71365000Y-119820000D01*
G75*
G02*
X71230000Y-119685000I0J135000D01*
G01*
X71230000Y-119315000D01*
G75*
G02*
X71365000Y-119180000I135000J0D01*
G01*
X71635000Y-119180000D01*
G75*
G02*
X71770000Y-119315000I0J-135000D01*
G01*
G37*
G36*
G01*
X93000000Y-71750000D02*
X93000000Y-68250000D01*
G75*
G02*
X93250000Y-68000000I250000J0D01*
G01*
X96750000Y-68000000D01*
G75*
G02*
X97000000Y-68250000I0J-250000D01*
G01*
X97000000Y-71750000D01*
G75*
G02*
X96750000Y-72000000I-250000J0D01*
G01*
X93250000Y-72000000D01*
G75*
G02*
X93000000Y-71750000I0J250000D01*
G01*
G37*
D12*
X102200000Y-70000000D03*
G36*
G01*
X157490000Y-106670000D02*
X157490000Y-106330000D01*
G75*
G02*
X157630000Y-106190000I140000J0D01*
G01*
X157910000Y-106190000D01*
G75*
G02*
X158050000Y-106330000I0J-140000D01*
G01*
X158050000Y-106670000D01*
G75*
G02*
X157910000Y-106810000I-140000J0D01*
G01*
X157630000Y-106810000D01*
G75*
G02*
X157490000Y-106670000I0J140000D01*
G01*
G37*
G36*
G01*
X158450000Y-106670000D02*
X158450000Y-106330000D01*
G75*
G02*
X158590000Y-106190000I140000J0D01*
G01*
X158870000Y-106190000D01*
G75*
G02*
X159010000Y-106330000I0J-140000D01*
G01*
X159010000Y-106670000D01*
G75*
G02*
X158870000Y-106810000I-140000J0D01*
G01*
X158590000Y-106810000D01*
G75*
G02*
X158450000Y-106670000I0J140000D01*
G01*
G37*
D11*
X136325000Y-91225000D03*
X136325000Y-89825000D03*
G36*
G01*
X97780000Y-133315000D02*
X97780000Y-133685000D01*
G75*
G02*
X97645000Y-133820000I-135000J0D01*
G01*
X97375000Y-133820000D01*
G75*
G02*
X97240000Y-133685000I0J135000D01*
G01*
X97240000Y-133315000D01*
G75*
G02*
X97375000Y-133180000I135000J0D01*
G01*
X97645000Y-133180000D01*
G75*
G02*
X97780000Y-133315000I0J-135000D01*
G01*
G37*
G36*
G01*
X96760000Y-133315000D02*
X96760000Y-133685000D01*
G75*
G02*
X96625000Y-133820000I-135000J0D01*
G01*
X96355000Y-133820000D01*
G75*
G02*
X96220000Y-133685000I0J135000D01*
G01*
X96220000Y-133315000D01*
G75*
G02*
X96355000Y-133180000I135000J0D01*
G01*
X96625000Y-133180000D01*
G75*
G02*
X96760000Y-133315000I0J-135000D01*
G01*
G37*
X161000000Y-74400000D03*
X161000000Y-73000000D03*
D13*
X137175000Y-128275000D03*
X137825000Y-128275000D03*
X138475000Y-128275000D03*
X138475000Y-126375000D03*
X137175000Y-126375000D03*
G36*
G01*
X140510000Y-111115000D02*
X140140000Y-111115000D01*
G75*
G02*
X140005000Y-110980000I0J135000D01*
G01*
X140005000Y-110710000D01*
G75*
G02*
X140140000Y-110575000I135000J0D01*
G01*
X140510000Y-110575000D01*
G75*
G02*
X140645000Y-110710000I0J-135000D01*
G01*
X140645000Y-110980000D01*
G75*
G02*
X140510000Y-111115000I-135000J0D01*
G01*
G37*
G36*
G01*
X140510000Y-110095000D02*
X140140000Y-110095000D01*
G75*
G02*
X140005000Y-109960000I0J135000D01*
G01*
X140005000Y-109690000D01*
G75*
G02*
X140140000Y-109555000I135000J0D01*
G01*
X140510000Y-109555000D01*
G75*
G02*
X140645000Y-109690000I0J-135000D01*
G01*
X140645000Y-109960000D01*
G75*
G02*
X140510000Y-110095000I-135000J0D01*
G01*
G37*
G36*
G01*
X160185000Y-107780000D02*
X159815000Y-107780000D01*
G75*
G02*
X159680000Y-107645000I0J135000D01*
G01*
X159680000Y-107375000D01*
G75*
G02*
X159815000Y-107240000I135000J0D01*
G01*
X160185000Y-107240000D01*
G75*
G02*
X160320000Y-107375000I0J-135000D01*
G01*
X160320000Y-107645000D01*
G75*
G02*
X160185000Y-107780000I-135000J0D01*
G01*
G37*
G36*
G01*
X160185000Y-106760000D02*
X159815000Y-106760000D01*
G75*
G02*
X159680000Y-106625000I0J135000D01*
G01*
X159680000Y-106355000D01*
G75*
G02*
X159815000Y-106220000I135000J0D01*
G01*
X160185000Y-106220000D01*
G75*
G02*
X160320000Y-106355000I0J-135000D01*
G01*
X160320000Y-106625000D01*
G75*
G02*
X160185000Y-106760000I-135000J0D01*
G01*
G37*
G36*
G01*
X164290000Y-104815000D02*
X164290000Y-105185000D01*
G75*
G02*
X164155000Y-105320000I-135000J0D01*
G01*
X163885000Y-105320000D01*
G75*
G02*
X163750000Y-105185000I0J135000D01*
G01*
X163750000Y-104815000D01*
G75*
G02*
X163885000Y-104680000I135000J0D01*
G01*
X164155000Y-104680000D01*
G75*
G02*
X164290000Y-104815000I0J-135000D01*
G01*
G37*
G36*
G01*
X163270000Y-104815000D02*
X163270000Y-105185000D01*
G75*
G02*
X163135000Y-105320000I-135000J0D01*
G01*
X162865000Y-105320000D01*
G75*
G02*
X162730000Y-105185000I0J135000D01*
G01*
X162730000Y-104815000D01*
G75*
G02*
X162865000Y-104680000I135000J0D01*
G01*
X163135000Y-104680000D01*
G75*
G02*
X163270000Y-104815000I0J-135000D01*
G01*
G37*
G36*
G01*
X71700000Y-78175000D02*
X71400000Y-78175000D01*
G75*
G02*
X71250000Y-78025000I0J150000D01*
G01*
X71250000Y-76850000D01*
G75*
G02*
X71400000Y-76700000I150000J0D01*
G01*
X71700000Y-76700000D01*
G75*
G02*
X71850000Y-76850000I0J-150000D01*
G01*
X71850000Y-78025000D01*
G75*
G02*
X71700000Y-78175000I-150000J0D01*
G01*
G37*
G36*
G01*
X73600000Y-78175000D02*
X73300000Y-78175000D01*
G75*
G02*
X73150000Y-78025000I0J150000D01*
G01*
X73150000Y-76850000D01*
G75*
G02*
X73300000Y-76700000I150000J0D01*
G01*
X73600000Y-76700000D01*
G75*
G02*
X73750000Y-76850000I0J-150000D01*
G01*
X73750000Y-78025000D01*
G75*
G02*
X73600000Y-78175000I-150000J0D01*
G01*
G37*
G36*
G01*
X72650000Y-76300000D02*
X72350000Y-76300000D01*
G75*
G02*
X72200000Y-76150000I0J150000D01*
G01*
X72200000Y-74975000D01*
G75*
G02*
X72350000Y-74825000I150000J0D01*
G01*
X72650000Y-74825000D01*
G75*
G02*
X72800000Y-74975000I0J-150000D01*
G01*
X72800000Y-76150000D01*
G75*
G02*
X72650000Y-76300000I-150000J0D01*
G01*
G37*
G36*
G01*
X91700000Y-78175000D02*
X91400000Y-78175000D01*
G75*
G02*
X91250000Y-78025000I0J150000D01*
G01*
X91250000Y-76850000D01*
G75*
G02*
X91400000Y-76700000I150000J0D01*
G01*
X91700000Y-76700000D01*
G75*
G02*
X91850000Y-76850000I0J-150000D01*
G01*
X91850000Y-78025000D01*
G75*
G02*
X91700000Y-78175000I-150000J0D01*
G01*
G37*
G36*
G01*
X93600000Y-78175000D02*
X93300000Y-78175000D01*
G75*
G02*
X93150000Y-78025000I0J150000D01*
G01*
X93150000Y-76850000D01*
G75*
G02*
X93300000Y-76700000I150000J0D01*
G01*
X93600000Y-76700000D01*
G75*
G02*
X93750000Y-76850000I0J-150000D01*
G01*
X93750000Y-78025000D01*
G75*
G02*
X93600000Y-78175000I-150000J0D01*
G01*
G37*
G36*
G01*
X92650000Y-76300000D02*
X92350000Y-76300000D01*
G75*
G02*
X92200000Y-76150000I0J150000D01*
G01*
X92200000Y-74975000D01*
G75*
G02*
X92350000Y-74825000I150000J0D01*
G01*
X92650000Y-74825000D01*
G75*
G02*
X92800000Y-74975000I0J-150000D01*
G01*
X92800000Y-76150000D01*
G75*
G02*
X92650000Y-76300000I-150000J0D01*
G01*
G37*
G36*
G01*
X157990000Y-85170000D02*
X157990000Y-84830000D01*
G75*
G02*
X158130000Y-84690000I140000J0D01*
G01*
X158410000Y-84690000D01*
G75*
G02*
X158550000Y-84830000I0J-140000D01*
G01*
X158550000Y-85170000D01*
G75*
G02*
X158410000Y-85310000I-140000J0D01*
G01*
X158130000Y-85310000D01*
G75*
G02*
X157990000Y-85170000I0J140000D01*
G01*
G37*
G36*
G01*
X158950000Y-85170000D02*
X158950000Y-84830000D01*
G75*
G02*
X159090000Y-84690000I140000J0D01*
G01*
X159370000Y-84690000D01*
G75*
G02*
X159510000Y-84830000I0J-140000D01*
G01*
X159510000Y-85170000D01*
G75*
G02*
X159370000Y-85310000I-140000J0D01*
G01*
X159090000Y-85310000D01*
G75*
G02*
X158950000Y-85170000I0J140000D01*
G01*
G37*
G36*
G01*
X73000000Y-131750000D02*
X73000000Y-128250000D01*
G75*
G02*
X73250000Y-128000000I250000J0D01*
G01*
X76750000Y-128000000D01*
G75*
G02*
X77000000Y-128250000I0J-250000D01*
G01*
X77000000Y-131750000D01*
G75*
G02*
X76750000Y-132000000I-250000J0D01*
G01*
X73250000Y-132000000D01*
G75*
G02*
X73000000Y-131750000I0J250000D01*
G01*
G37*
D12*
X82200000Y-130000000D03*
G36*
G01*
X93000000Y-131750000D02*
X93000000Y-128250000D01*
G75*
G02*
X93250000Y-128000000I250000J0D01*
G01*
X96750000Y-128000000D01*
G75*
G02*
X97000000Y-128250000I0J-250000D01*
G01*
X97000000Y-131750000D01*
G75*
G02*
X96750000Y-132000000I-250000J0D01*
G01*
X93250000Y-132000000D01*
G75*
G02*
X93000000Y-131750000I0J250000D01*
G01*
G37*
X102200000Y-130000000D03*
G36*
G01*
X74210000Y-99685000D02*
X74210000Y-99315000D01*
G75*
G02*
X74345000Y-99180000I135000J0D01*
G01*
X74615000Y-99180000D01*
G75*
G02*
X74750000Y-99315000I0J-135000D01*
G01*
X74750000Y-99685000D01*
G75*
G02*
X74615000Y-99820000I-135000J0D01*
G01*
X74345000Y-99820000D01*
G75*
G02*
X74210000Y-99685000I0J135000D01*
G01*
G37*
G36*
G01*
X75230000Y-99685000D02*
X75230000Y-99315000D01*
G75*
G02*
X75365000Y-99180000I135000J0D01*
G01*
X75635000Y-99180000D01*
G75*
G02*
X75770000Y-99315000I0J-135000D01*
G01*
X75770000Y-99685000D01*
G75*
G02*
X75635000Y-99820000I-135000J0D01*
G01*
X75365000Y-99820000D01*
G75*
G02*
X75230000Y-99685000I0J135000D01*
G01*
G37*
G36*
G01*
X162250000Y-130170000D02*
X162250000Y-129830000D01*
G75*
G02*
X162390000Y-129690000I140000J0D01*
G01*
X162670000Y-129690000D01*
G75*
G02*
X162810000Y-129830000I0J-140000D01*
G01*
X162810000Y-130170000D01*
G75*
G02*
X162670000Y-130310000I-140000J0D01*
G01*
X162390000Y-130310000D01*
G75*
G02*
X162250000Y-130170000I0J140000D01*
G01*
G37*
G36*
G01*
X163210000Y-130170000D02*
X163210000Y-129830000D01*
G75*
G02*
X163350000Y-129690000I140000J0D01*
G01*
X163630000Y-129690000D01*
G75*
G02*
X163770000Y-129830000I0J-140000D01*
G01*
X163770000Y-130170000D01*
G75*
G02*
X163630000Y-130310000I-140000J0D01*
G01*
X163350000Y-130310000D01*
G75*
G02*
X163210000Y-130170000I0J140000D01*
G01*
G37*
G36*
G01*
X71700000Y-138175000D02*
X71400000Y-138175000D01*
G75*
G02*
X71250000Y-138025000I0J150000D01*
G01*
X71250000Y-136850000D01*
G75*
G02*
X71400000Y-136700000I150000J0D01*
G01*
X71700000Y-136700000D01*
G75*
G02*
X71850000Y-136850000I0J-150000D01*
G01*
X71850000Y-138025000D01*
G75*
G02*
X71700000Y-138175000I-150000J0D01*
G01*
G37*
G36*
G01*
X73600000Y-138175000D02*
X73300000Y-138175000D01*
G75*
G02*
X73150000Y-138025000I0J150000D01*
G01*
X73150000Y-136850000D01*
G75*
G02*
X73300000Y-136700000I150000J0D01*
G01*
X73600000Y-136700000D01*
G75*
G02*
X73750000Y-136850000I0J-150000D01*
G01*
X73750000Y-138025000D01*
G75*
G02*
X73600000Y-138175000I-150000J0D01*
G01*
G37*
G36*
G01*
X72650000Y-136300000D02*
X72350000Y-136300000D01*
G75*
G02*
X72200000Y-136150000I0J150000D01*
G01*
X72200000Y-134975000D01*
G75*
G02*
X72350000Y-134825000I150000J0D01*
G01*
X72650000Y-134825000D01*
G75*
G02*
X72800000Y-134975000I0J-150000D01*
G01*
X72800000Y-136150000D01*
G75*
G02*
X72650000Y-136300000I-150000J0D01*
G01*
G37*
G36*
G01*
X160185000Y-87780000D02*
X159815000Y-87780000D01*
G75*
G02*
X159680000Y-87645000I0J135000D01*
G01*
X159680000Y-87375000D01*
G75*
G02*
X159815000Y-87240000I135000J0D01*
G01*
X160185000Y-87240000D01*
G75*
G02*
X160320000Y-87375000I0J-135000D01*
G01*
X160320000Y-87645000D01*
G75*
G02*
X160185000Y-87780000I-135000J0D01*
G01*
G37*
G36*
G01*
X160185000Y-86760000D02*
X159815000Y-86760000D01*
G75*
G02*
X159680000Y-86625000I0J135000D01*
G01*
X159680000Y-86355000D01*
G75*
G02*
X159815000Y-86220000I135000J0D01*
G01*
X160185000Y-86220000D01*
G75*
G02*
X160320000Y-86355000I0J-135000D01*
G01*
X160320000Y-86625000D01*
G75*
G02*
X160185000Y-86760000I-135000J0D01*
G01*
G37*
G36*
G01*
X131545000Y-130010000D02*
X131545000Y-129640000D01*
G75*
G02*
X131680000Y-129505000I135000J0D01*
G01*
X131950000Y-129505000D01*
G75*
G02*
X132085000Y-129640000I0J-135000D01*
G01*
X132085000Y-130010000D01*
G75*
G02*
X131950000Y-130145000I-135000J0D01*
G01*
X131680000Y-130145000D01*
G75*
G02*
X131545000Y-130010000I0J135000D01*
G01*
G37*
G36*
G01*
X132565000Y-130010000D02*
X132565000Y-129640000D01*
G75*
G02*
X132700000Y-129505000I135000J0D01*
G01*
X132970000Y-129505000D01*
G75*
G02*
X133105000Y-129640000I0J-135000D01*
G01*
X133105000Y-130010000D01*
G75*
G02*
X132970000Y-130145000I-135000J0D01*
G01*
X132700000Y-130145000D01*
G75*
G02*
X132565000Y-130010000I0J135000D01*
G01*
G37*
G36*
G01*
X73780000Y-93315000D02*
X73780000Y-93685000D01*
G75*
G02*
X73645000Y-93820000I-135000J0D01*
G01*
X73375000Y-93820000D01*
G75*
G02*
X73240000Y-93685000I0J135000D01*
G01*
X73240000Y-93315000D01*
G75*
G02*
X73375000Y-93180000I135000J0D01*
G01*
X73645000Y-93180000D01*
G75*
G02*
X73780000Y-93315000I0J-135000D01*
G01*
G37*
G36*
G01*
X72760000Y-93315000D02*
X72760000Y-93685000D01*
G75*
G02*
X72625000Y-93820000I-135000J0D01*
G01*
X72355000Y-93820000D01*
G75*
G02*
X72220000Y-93685000I0J135000D01*
G01*
X72220000Y-93315000D01*
G75*
G02*
X72355000Y-93180000I135000J0D01*
G01*
X72625000Y-93180000D01*
G75*
G02*
X72760000Y-93315000I0J-135000D01*
G01*
G37*
G36*
G01*
X77780000Y-73315000D02*
X77780000Y-73685000D01*
G75*
G02*
X77645000Y-73820000I-135000J0D01*
G01*
X77375000Y-73820000D01*
G75*
G02*
X77240000Y-73685000I0J135000D01*
G01*
X77240000Y-73315000D01*
G75*
G02*
X77375000Y-73180000I135000J0D01*
G01*
X77645000Y-73180000D01*
G75*
G02*
X77780000Y-73315000I0J-135000D01*
G01*
G37*
G36*
G01*
X76760000Y-73315000D02*
X76760000Y-73685000D01*
G75*
G02*
X76625000Y-73820000I-135000J0D01*
G01*
X76355000Y-73820000D01*
G75*
G02*
X76220000Y-73685000I0J135000D01*
G01*
X76220000Y-73315000D01*
G75*
G02*
X76355000Y-73180000I135000J0D01*
G01*
X76625000Y-73180000D01*
G75*
G02*
X76760000Y-73315000I0J-135000D01*
G01*
G37*
G36*
G01*
X137545000Y-69995000D02*
X137545000Y-69655000D01*
G75*
G02*
X137685000Y-69515000I140000J0D01*
G01*
X137965000Y-69515000D01*
G75*
G02*
X138105000Y-69655000I0J-140000D01*
G01*
X138105000Y-69995000D01*
G75*
G02*
X137965000Y-70135000I-140000J0D01*
G01*
X137685000Y-70135000D01*
G75*
G02*
X137545000Y-69995000I0J140000D01*
G01*
G37*
G36*
G01*
X138505000Y-69995000D02*
X138505000Y-69655000D01*
G75*
G02*
X138645000Y-69515000I140000J0D01*
G01*
X138925000Y-69515000D01*
G75*
G02*
X139065000Y-69655000I0J-140000D01*
G01*
X139065000Y-69995000D01*
G75*
G02*
X138925000Y-70135000I-140000J0D01*
G01*
X138645000Y-70135000D01*
G75*
G02*
X138505000Y-69995000I0J140000D01*
G01*
G37*
G36*
G01*
X93780000Y-93315000D02*
X93780000Y-93685000D01*
G75*
G02*
X93645000Y-93820000I-135000J0D01*
G01*
X93375000Y-93820000D01*
G75*
G02*
X93240000Y-93685000I0J135000D01*
G01*
X93240000Y-93315000D01*
G75*
G02*
X93375000Y-93180000I135000J0D01*
G01*
X93645000Y-93180000D01*
G75*
G02*
X93780000Y-93315000I0J-135000D01*
G01*
G37*
G36*
G01*
X92760000Y-93315000D02*
X92760000Y-93685000D01*
G75*
G02*
X92625000Y-93820000I-135000J0D01*
G01*
X92355000Y-93820000D01*
G75*
G02*
X92220000Y-93685000I0J135000D01*
G01*
X92220000Y-93315000D01*
G75*
G02*
X92355000Y-93180000I135000J0D01*
G01*
X92625000Y-93180000D01*
G75*
G02*
X92760000Y-93315000I0J-135000D01*
G01*
G37*
G36*
G01*
X139615000Y-84640000D02*
X139615000Y-85010000D01*
G75*
G02*
X139480000Y-85145000I-135000J0D01*
G01*
X139210000Y-85145000D01*
G75*
G02*
X139075000Y-85010000I0J135000D01*
G01*
X139075000Y-84640000D01*
G75*
G02*
X139210000Y-84505000I135000J0D01*
G01*
X139480000Y-84505000D01*
G75*
G02*
X139615000Y-84640000I0J-135000D01*
G01*
G37*
G36*
G01*
X138595000Y-84640000D02*
X138595000Y-85010000D01*
G75*
G02*
X138460000Y-85145000I-135000J0D01*
G01*
X138190000Y-85145000D01*
G75*
G02*
X138055000Y-85010000I0J135000D01*
G01*
X138055000Y-84640000D01*
G75*
G02*
X138190000Y-84505000I135000J0D01*
G01*
X138460000Y-84505000D01*
G75*
G02*
X138595000Y-84640000I0J-135000D01*
G01*
G37*
G36*
G01*
X94210000Y-79685000D02*
X94210000Y-79315000D01*
G75*
G02*
X94345000Y-79180000I135000J0D01*
G01*
X94615000Y-79180000D01*
G75*
G02*
X94750000Y-79315000I0J-135000D01*
G01*
X94750000Y-79685000D01*
G75*
G02*
X94615000Y-79820000I-135000J0D01*
G01*
X94345000Y-79820000D01*
G75*
G02*
X94210000Y-79685000I0J135000D01*
G01*
G37*
G36*
G01*
X95230000Y-79685000D02*
X95230000Y-79315000D01*
G75*
G02*
X95365000Y-79180000I135000J0D01*
G01*
X95635000Y-79180000D01*
G75*
G02*
X95770000Y-79315000I0J-135000D01*
G01*
X95770000Y-79685000D01*
G75*
G02*
X95635000Y-79820000I-135000J0D01*
G01*
X95365000Y-79820000D01*
G75*
G02*
X95230000Y-79685000I0J135000D01*
G01*
G37*
G36*
G01*
X131555000Y-110010000D02*
X131555000Y-109640000D01*
G75*
G02*
X131690000Y-109505000I135000J0D01*
G01*
X131960000Y-109505000D01*
G75*
G02*
X132095000Y-109640000I0J-135000D01*
G01*
X132095000Y-110010000D01*
G75*
G02*
X131960000Y-110145000I-135000J0D01*
G01*
X131690000Y-110145000D01*
G75*
G02*
X131555000Y-110010000I0J135000D01*
G01*
G37*
G36*
G01*
X132575000Y-110010000D02*
X132575000Y-109640000D01*
G75*
G02*
X132710000Y-109505000I135000J0D01*
G01*
X132980000Y-109505000D01*
G75*
G02*
X133115000Y-109640000I0J-135000D01*
G01*
X133115000Y-110010000D01*
G75*
G02*
X132980000Y-110145000I-135000J0D01*
G01*
X132710000Y-110145000D01*
G75*
G02*
X132575000Y-110010000I0J135000D01*
G01*
G37*
D11*
X159000000Y-110000000D03*
X159000000Y-111400000D03*
G36*
G01*
X156220000Y-90185000D02*
X156220000Y-89815000D01*
G75*
G02*
X156355000Y-89680000I135000J0D01*
G01*
X156625000Y-89680000D01*
G75*
G02*
X156760000Y-89815000I0J-135000D01*
G01*
X156760000Y-90185000D01*
G75*
G02*
X156625000Y-90320000I-135000J0D01*
G01*
X156355000Y-90320000D01*
G75*
G02*
X156220000Y-90185000I0J135000D01*
G01*
G37*
G36*
G01*
X157240000Y-90185000D02*
X157240000Y-89815000D01*
G75*
G02*
X157375000Y-89680000I135000J0D01*
G01*
X157645000Y-89680000D01*
G75*
G02*
X157780000Y-89815000I0J-135000D01*
G01*
X157780000Y-90185000D01*
G75*
G02*
X157645000Y-90320000I-135000J0D01*
G01*
X157375000Y-90320000D01*
G75*
G02*
X157240000Y-90185000I0J135000D01*
G01*
G37*
G36*
G01*
X140510000Y-71115000D02*
X140140000Y-71115000D01*
G75*
G02*
X140005000Y-70980000I0J135000D01*
G01*
X140005000Y-70710000D01*
G75*
G02*
X140140000Y-70575000I135000J0D01*
G01*
X140510000Y-70575000D01*
G75*
G02*
X140645000Y-70710000I0J-135000D01*
G01*
X140645000Y-70980000D01*
G75*
G02*
X140510000Y-71115000I-135000J0D01*
G01*
G37*
G36*
G01*
X140510000Y-70095000D02*
X140140000Y-70095000D01*
G75*
G02*
X140005000Y-69960000I0J135000D01*
G01*
X140005000Y-69690000D01*
G75*
G02*
X140140000Y-69555000I135000J0D01*
G01*
X140510000Y-69555000D01*
G75*
G02*
X140645000Y-69690000I0J-135000D01*
G01*
X140645000Y-69960000D01*
G75*
G02*
X140510000Y-70095000I-135000J0D01*
G01*
G37*
X136325000Y-94325000D03*
X136325000Y-92925000D03*
G36*
G01*
X91700000Y-138175000D02*
X91400000Y-138175000D01*
G75*
G02*
X91250000Y-138025000I0J150000D01*
G01*
X91250000Y-136850000D01*
G75*
G02*
X91400000Y-136700000I150000J0D01*
G01*
X91700000Y-136700000D01*
G75*
G02*
X91850000Y-136850000I0J-150000D01*
G01*
X91850000Y-138025000D01*
G75*
G02*
X91700000Y-138175000I-150000J0D01*
G01*
G37*
G36*
G01*
X93600000Y-138175000D02*
X93300000Y-138175000D01*
G75*
G02*
X93150000Y-138025000I0J150000D01*
G01*
X93150000Y-136850000D01*
G75*
G02*
X93300000Y-136700000I150000J0D01*
G01*
X93600000Y-136700000D01*
G75*
G02*
X93750000Y-136850000I0J-150000D01*
G01*
X93750000Y-138025000D01*
G75*
G02*
X93600000Y-138175000I-150000J0D01*
G01*
G37*
G36*
G01*
X92650000Y-136300000D02*
X92350000Y-136300000D01*
G75*
G02*
X92200000Y-136150000I0J150000D01*
G01*
X92200000Y-134975000D01*
G75*
G02*
X92350000Y-134825000I150000J0D01*
G01*
X92650000Y-134825000D01*
G75*
G02*
X92800000Y-134975000I0J-150000D01*
G01*
X92800000Y-136150000D01*
G75*
G02*
X92650000Y-136300000I-150000J0D01*
G01*
G37*
G36*
G01*
X53000000Y-81750000D02*
X53000000Y-78250000D01*
G75*
G02*
X53250000Y-78000000I250000J0D01*
G01*
X56750000Y-78000000D01*
G75*
G02*
X57000000Y-78250000I0J-250000D01*
G01*
X57000000Y-81750000D01*
G75*
G02*
X56750000Y-82000000I-250000J0D01*
G01*
X53250000Y-82000000D01*
G75*
G02*
X53000000Y-81750000I0J250000D01*
G01*
G37*
X134325000Y-109825000D03*
X134325000Y-111225000D03*
G36*
G01*
X72790000Y-99315000D02*
X72790000Y-99685000D01*
G75*
G02*
X72655000Y-99820000I-135000J0D01*
G01*
X72385000Y-99820000D01*
G75*
G02*
X72250000Y-99685000I0J135000D01*
G01*
X72250000Y-99315000D01*
G75*
G02*
X72385000Y-99180000I135000J0D01*
G01*
X72655000Y-99180000D01*
G75*
G02*
X72790000Y-99315000I0J-135000D01*
G01*
G37*
G36*
G01*
X71770000Y-99315000D02*
X71770000Y-99685000D01*
G75*
G02*
X71635000Y-99820000I-135000J0D01*
G01*
X71365000Y-99820000D01*
G75*
G02*
X71230000Y-99685000I0J135000D01*
G01*
X71230000Y-99315000D01*
G75*
G02*
X71365000Y-99180000I135000J0D01*
G01*
X71635000Y-99180000D01*
G75*
G02*
X71770000Y-99315000I0J-135000D01*
G01*
G37*
G36*
G01*
X139615000Y-104640000D02*
X139615000Y-105010000D01*
G75*
G02*
X139480000Y-105145000I-135000J0D01*
G01*
X139210000Y-105145000D01*
G75*
G02*
X139075000Y-105010000I0J135000D01*
G01*
X139075000Y-104640000D01*
G75*
G02*
X139210000Y-104505000I135000J0D01*
G01*
X139480000Y-104505000D01*
G75*
G02*
X139615000Y-104640000I0J-135000D01*
G01*
G37*
G36*
G01*
X138595000Y-104640000D02*
X138595000Y-105010000D01*
G75*
G02*
X138460000Y-105145000I-135000J0D01*
G01*
X138190000Y-105145000D01*
G75*
G02*
X138055000Y-105010000I0J135000D01*
G01*
X138055000Y-104640000D01*
G75*
G02*
X138190000Y-104505000I135000J0D01*
G01*
X138460000Y-104505000D01*
G75*
G02*
X138595000Y-104640000I0J-135000D01*
G01*
G37*
G36*
G01*
X74210000Y-119685000D02*
X74210000Y-119315000D01*
G75*
G02*
X74345000Y-119180000I135000J0D01*
G01*
X74615000Y-119180000D01*
G75*
G02*
X74750000Y-119315000I0J-135000D01*
G01*
X74750000Y-119685000D01*
G75*
G02*
X74615000Y-119820000I-135000J0D01*
G01*
X74345000Y-119820000D01*
G75*
G02*
X74210000Y-119685000I0J135000D01*
G01*
G37*
G36*
G01*
X75230000Y-119685000D02*
X75230000Y-119315000D01*
G75*
G02*
X75365000Y-119180000I135000J0D01*
G01*
X75635000Y-119180000D01*
G75*
G02*
X75770000Y-119315000I0J-135000D01*
G01*
X75770000Y-119685000D01*
G75*
G02*
X75635000Y-119820000I-135000J0D01*
G01*
X75365000Y-119820000D01*
G75*
G02*
X75230000Y-119685000I0J135000D01*
G01*
G37*
G36*
G01*
X156230000Y-110185000D02*
X156230000Y-109815000D01*
G75*
G02*
X156365000Y-109680000I135000J0D01*
G01*
X156635000Y-109680000D01*
G75*
G02*
X156770000Y-109815000I0J-135000D01*
G01*
X156770000Y-110185000D01*
G75*
G02*
X156635000Y-110320000I-135000J0D01*
G01*
X156365000Y-110320000D01*
G75*
G02*
X156230000Y-110185000I0J135000D01*
G01*
G37*
G36*
G01*
X157250000Y-110185000D02*
X157250000Y-109815000D01*
G75*
G02*
X157385000Y-109680000I135000J0D01*
G01*
X157655000Y-109680000D01*
G75*
G02*
X157790000Y-109815000I0J-135000D01*
G01*
X157790000Y-110185000D01*
G75*
G02*
X157655000Y-110320000I-135000J0D01*
G01*
X157385000Y-110320000D01*
G75*
G02*
X157250000Y-110185000I0J135000D01*
G01*
G37*
G36*
G01*
X131640000Y-71055000D02*
X132010000Y-71055000D01*
G75*
G02*
X132145000Y-71190000I0J-135000D01*
G01*
X132145000Y-71460000D01*
G75*
G02*
X132010000Y-71595000I-135000J0D01*
G01*
X131640000Y-71595000D01*
G75*
G02*
X131505000Y-71460000I0J135000D01*
G01*
X131505000Y-71190000D01*
G75*
G02*
X131640000Y-71055000I135000J0D01*
G01*
G37*
G36*
G01*
X131640000Y-72075000D02*
X132010000Y-72075000D01*
G75*
G02*
X132145000Y-72210000I0J-135000D01*
G01*
X132145000Y-72480000D01*
G75*
G02*
X132010000Y-72615000I-135000J0D01*
G01*
X131640000Y-72615000D01*
G75*
G02*
X131505000Y-72480000I0J135000D01*
G01*
X131505000Y-72210000D01*
G75*
G02*
X131640000Y-72075000I135000J0D01*
G01*
G37*
X159000000Y-93000000D03*
X159000000Y-94400000D03*
X134325000Y-129825000D03*
X134325000Y-131225000D03*
G36*
G01*
X137105000Y-64640000D02*
X137105000Y-65010000D01*
G75*
G02*
X136970000Y-65145000I-135000J0D01*
G01*
X136700000Y-65145000D01*
G75*
G02*
X136565000Y-65010000I0J135000D01*
G01*
X136565000Y-64640000D01*
G75*
G02*
X136700000Y-64505000I135000J0D01*
G01*
X136970000Y-64505000D01*
G75*
G02*
X137105000Y-64640000I0J-135000D01*
G01*
G37*
G36*
G01*
X136085000Y-64640000D02*
X136085000Y-65010000D01*
G75*
G02*
X135950000Y-65145000I-135000J0D01*
G01*
X135680000Y-65145000D01*
G75*
G02*
X135545000Y-65010000I0J135000D01*
G01*
X135545000Y-64640000D01*
G75*
G02*
X135680000Y-64505000I135000J0D01*
G01*
X135950000Y-64505000D01*
G75*
G02*
X136085000Y-64640000I0J-135000D01*
G01*
G37*
G36*
G01*
X156315000Y-131220000D02*
X156685000Y-131220000D01*
G75*
G02*
X156820000Y-131355000I0J-135000D01*
G01*
X156820000Y-131625000D01*
G75*
G02*
X156685000Y-131760000I-135000J0D01*
G01*
X156315000Y-131760000D01*
G75*
G02*
X156180000Y-131625000I0J135000D01*
G01*
X156180000Y-131355000D01*
G75*
G02*
X156315000Y-131220000I135000J0D01*
G01*
G37*
G36*
G01*
X156315000Y-132240000D02*
X156685000Y-132240000D01*
G75*
G02*
X156820000Y-132375000I0J-135000D01*
G01*
X156820000Y-132645000D01*
G75*
G02*
X156685000Y-132780000I-135000J0D01*
G01*
X156315000Y-132780000D01*
G75*
G02*
X156180000Y-132645000I0J135000D01*
G01*
X156180000Y-132375000D01*
G75*
G02*
X156315000Y-132240000I135000J0D01*
G01*
G37*
G36*
G01*
X165170000Y-87740000D02*
X164830000Y-87740000D01*
G75*
G02*
X164690000Y-87600000I0J140000D01*
G01*
X164690000Y-87320000D01*
G75*
G02*
X164830000Y-87180000I140000J0D01*
G01*
X165170000Y-87180000D01*
G75*
G02*
X165310000Y-87320000I0J-140000D01*
G01*
X165310000Y-87600000D01*
G75*
G02*
X165170000Y-87740000I-140000J0D01*
G01*
G37*
G36*
G01*
X165170000Y-86780000D02*
X164830000Y-86780000D01*
G75*
G02*
X164690000Y-86640000I0J140000D01*
G01*
X164690000Y-86360000D01*
G75*
G02*
X164830000Y-86220000I140000J0D01*
G01*
X165170000Y-86220000D01*
G75*
G02*
X165310000Y-86360000I0J-140000D01*
G01*
X165310000Y-86640000D01*
G75*
G02*
X165170000Y-86780000I-140000J0D01*
G01*
G37*
G36*
G01*
X137105000Y-104640000D02*
X137105000Y-105010000D01*
G75*
G02*
X136970000Y-105145000I-135000J0D01*
G01*
X136700000Y-105145000D01*
G75*
G02*
X136565000Y-105010000I0J135000D01*
G01*
X136565000Y-104640000D01*
G75*
G02*
X136700000Y-104505000I135000J0D01*
G01*
X136970000Y-104505000D01*
G75*
G02*
X137105000Y-104640000I0J-135000D01*
G01*
G37*
G36*
G01*
X136085000Y-104640000D02*
X136085000Y-105010000D01*
G75*
G02*
X135950000Y-105145000I-135000J0D01*
G01*
X135680000Y-105145000D01*
G75*
G02*
X135545000Y-105010000I0J135000D01*
G01*
X135545000Y-104640000D01*
G75*
G02*
X135680000Y-104505000I135000J0D01*
G01*
X135950000Y-104505000D01*
G75*
G02*
X136085000Y-104640000I0J-135000D01*
G01*
G37*
G36*
G01*
X132815000Y-86495000D02*
X132815000Y-86155000D01*
G75*
G02*
X132955000Y-86015000I140000J0D01*
G01*
X133235000Y-86015000D01*
G75*
G02*
X133375000Y-86155000I0J-140000D01*
G01*
X133375000Y-86495000D01*
G75*
G02*
X133235000Y-86635000I-140000J0D01*
G01*
X132955000Y-86635000D01*
G75*
G02*
X132815000Y-86495000I0J140000D01*
G01*
G37*
G36*
G01*
X133775000Y-86495000D02*
X133775000Y-86155000D01*
G75*
G02*
X133915000Y-86015000I140000J0D01*
G01*
X134195000Y-86015000D01*
G75*
G02*
X134335000Y-86155000I0J-140000D01*
G01*
X134335000Y-86495000D01*
G75*
G02*
X134195000Y-86635000I-140000J0D01*
G01*
X133915000Y-86635000D01*
G75*
G02*
X133775000Y-86495000I0J140000D01*
G01*
G37*
D14*
X125000000Y-130000000D03*
D15*
X121825000Y-133175000D03*
X121825000Y-126825000D03*
X128175000Y-133175000D03*
X128175000Y-126825000D03*
D11*
X161000000Y-94500000D03*
X161000000Y-93100000D03*
D14*
X150000000Y-130000000D03*
D15*
X153175000Y-126825000D03*
X153175000Y-133175000D03*
X146825000Y-126825000D03*
X146825000Y-133175000D03*
G36*
G01*
X133315000Y-84995000D02*
X133315000Y-84655000D01*
G75*
G02*
X133455000Y-84515000I140000J0D01*
G01*
X133735000Y-84515000D01*
G75*
G02*
X133875000Y-84655000I0J-140000D01*
G01*
X133875000Y-84995000D01*
G75*
G02*
X133735000Y-85135000I-140000J0D01*
G01*
X133455000Y-85135000D01*
G75*
G02*
X133315000Y-84995000I0J140000D01*
G01*
G37*
G36*
G01*
X134275000Y-84995000D02*
X134275000Y-84655000D01*
G75*
G02*
X134415000Y-84515000I140000J0D01*
G01*
X134695000Y-84515000D01*
G75*
G02*
X134835000Y-84655000I0J-140000D01*
G01*
X134835000Y-84995000D01*
G75*
G02*
X134695000Y-85135000I-140000J0D01*
G01*
X134415000Y-85135000D01*
G75*
G02*
X134275000Y-84995000I0J140000D01*
G01*
G37*
G36*
G01*
X73000000Y-71750000D02*
X73000000Y-68250000D01*
G75*
G02*
X73250000Y-68000000I250000J0D01*
G01*
X76750000Y-68000000D01*
G75*
G02*
X77000000Y-68250000I0J-250000D01*
G01*
X77000000Y-71750000D01*
G75*
G02*
X76750000Y-72000000I-250000J0D01*
G01*
X73250000Y-72000000D01*
G75*
G02*
X73000000Y-71750000I0J250000D01*
G01*
G37*
D12*
X82200000Y-70000000D03*
D11*
X136335000Y-134225000D03*
X136335000Y-132825000D03*
G36*
G01*
X140510000Y-131115000D02*
X140140000Y-131115000D01*
G75*
G02*
X140005000Y-130980000I0J135000D01*
G01*
X140005000Y-130710000D01*
G75*
G02*
X140140000Y-130575000I135000J0D01*
G01*
X140510000Y-130575000D01*
G75*
G02*
X140645000Y-130710000I0J-135000D01*
G01*
X140645000Y-130980000D01*
G75*
G02*
X140510000Y-131115000I-135000J0D01*
G01*
G37*
G36*
G01*
X140510000Y-130095000D02*
X140140000Y-130095000D01*
G75*
G02*
X140005000Y-129960000I0J135000D01*
G01*
X140005000Y-129690000D01*
G75*
G02*
X140140000Y-129555000I135000J0D01*
G01*
X140510000Y-129555000D01*
G75*
G02*
X140645000Y-129690000I0J-135000D01*
G01*
X140645000Y-129960000D01*
G75*
G02*
X140510000Y-130095000I-135000J0D01*
G01*
G37*
G36*
G01*
X77780000Y-133315000D02*
X77780000Y-133685000D01*
G75*
G02*
X77645000Y-133820000I-135000J0D01*
G01*
X77375000Y-133820000D01*
G75*
G02*
X77240000Y-133685000I0J135000D01*
G01*
X77240000Y-133315000D01*
G75*
G02*
X77375000Y-133180000I135000J0D01*
G01*
X77645000Y-133180000D01*
G75*
G02*
X77780000Y-133315000I0J-135000D01*
G01*
G37*
G36*
G01*
X76760000Y-133315000D02*
X76760000Y-133685000D01*
G75*
G02*
X76625000Y-133820000I-135000J0D01*
G01*
X76355000Y-133820000D01*
G75*
G02*
X76220000Y-133685000I0J135000D01*
G01*
X76220000Y-133315000D01*
G75*
G02*
X76355000Y-133180000I135000J0D01*
G01*
X76625000Y-133180000D01*
G75*
G02*
X76760000Y-133315000I0J-135000D01*
G01*
G37*
G36*
G01*
X92790000Y-79315000D02*
X92790000Y-79685000D01*
G75*
G02*
X92655000Y-79820000I-135000J0D01*
G01*
X92385000Y-79820000D01*
G75*
G02*
X92250000Y-79685000I0J135000D01*
G01*
X92250000Y-79315000D01*
G75*
G02*
X92385000Y-79180000I135000J0D01*
G01*
X92655000Y-79180000D01*
G75*
G02*
X92790000Y-79315000I0J-135000D01*
G01*
G37*
G36*
G01*
X91770000Y-79315000D02*
X91770000Y-79685000D01*
G75*
G02*
X91635000Y-79820000I-135000J0D01*
G01*
X91365000Y-79820000D01*
G75*
G02*
X91230000Y-79685000I0J135000D01*
G01*
X91230000Y-79315000D01*
G75*
G02*
X91365000Y-79180000I135000J0D01*
G01*
X91635000Y-79180000D01*
G75*
G02*
X91770000Y-79315000I0J-135000D01*
G01*
G37*
G36*
G01*
X77780000Y-93315000D02*
X77780000Y-93685000D01*
G75*
G02*
X77645000Y-93820000I-135000J0D01*
G01*
X77375000Y-93820000D01*
G75*
G02*
X77240000Y-93685000I0J135000D01*
G01*
X77240000Y-93315000D01*
G75*
G02*
X77375000Y-93180000I135000J0D01*
G01*
X77645000Y-93180000D01*
G75*
G02*
X77780000Y-93315000I0J-135000D01*
G01*
G37*
G36*
G01*
X76760000Y-93315000D02*
X76760000Y-93685000D01*
G75*
G02*
X76625000Y-93820000I-135000J0D01*
G01*
X76355000Y-93820000D01*
G75*
G02*
X76220000Y-93685000I0J135000D01*
G01*
X76220000Y-93315000D01*
G75*
G02*
X76355000Y-93180000I135000J0D01*
G01*
X76625000Y-93180000D01*
G75*
G02*
X76760000Y-93315000I0J-135000D01*
G01*
G37*
X134325000Y-89825000D03*
X134325000Y-91225000D03*
G36*
G01*
X137105000Y-84640000D02*
X137105000Y-85010000D01*
G75*
G02*
X136970000Y-85145000I-135000J0D01*
G01*
X136700000Y-85145000D01*
G75*
G02*
X136565000Y-85010000I0J135000D01*
G01*
X136565000Y-84640000D01*
G75*
G02*
X136700000Y-84505000I135000J0D01*
G01*
X136970000Y-84505000D01*
G75*
G02*
X137105000Y-84640000I0J-135000D01*
G01*
G37*
G36*
G01*
X136085000Y-84640000D02*
X136085000Y-85010000D01*
G75*
G02*
X135950000Y-85145000I-135000J0D01*
G01*
X135680000Y-85145000D01*
G75*
G02*
X135545000Y-85010000I0J135000D01*
G01*
X135545000Y-84640000D01*
G75*
G02*
X135680000Y-84505000I135000J0D01*
G01*
X135950000Y-84505000D01*
G75*
G02*
X136085000Y-84640000I0J-135000D01*
G01*
G37*
G36*
G01*
X156315000Y-91230000D02*
X156685000Y-91230000D01*
G75*
G02*
X156820000Y-91365000I0J-135000D01*
G01*
X156820000Y-91635000D01*
G75*
G02*
X156685000Y-91770000I-135000J0D01*
G01*
X156315000Y-91770000D01*
G75*
G02*
X156180000Y-91635000I0J135000D01*
G01*
X156180000Y-91365000D01*
G75*
G02*
X156315000Y-91230000I135000J0D01*
G01*
G37*
G36*
G01*
X156315000Y-92250000D02*
X156685000Y-92250000D01*
G75*
G02*
X156820000Y-92385000I0J-135000D01*
G01*
X156820000Y-92655000D01*
G75*
G02*
X156685000Y-92790000I-135000J0D01*
G01*
X156315000Y-92790000D01*
G75*
G02*
X156180000Y-92655000I0J135000D01*
G01*
X156180000Y-92385000D01*
G75*
G02*
X156315000Y-92250000I135000J0D01*
G01*
G37*
G36*
G01*
X140495000Y-67565000D02*
X140155000Y-67565000D01*
G75*
G02*
X140015000Y-67425000I0J140000D01*
G01*
X140015000Y-67145000D01*
G75*
G02*
X140155000Y-67005000I140000J0D01*
G01*
X140495000Y-67005000D01*
G75*
G02*
X140635000Y-67145000I0J-140000D01*
G01*
X140635000Y-67425000D01*
G75*
G02*
X140495000Y-67565000I-140000J0D01*
G01*
G37*
G36*
G01*
X140495000Y-66605000D02*
X140155000Y-66605000D01*
G75*
G02*
X140015000Y-66465000I0J140000D01*
G01*
X140015000Y-66185000D01*
G75*
G02*
X140155000Y-66045000I140000J0D01*
G01*
X140495000Y-66045000D01*
G75*
G02*
X140635000Y-66185000I0J-140000D01*
G01*
X140635000Y-66465000D01*
G75*
G02*
X140495000Y-66605000I-140000J0D01*
G01*
G37*
G36*
G01*
X73000000Y-111750000D02*
X73000000Y-108250000D01*
G75*
G02*
X73250000Y-108000000I250000J0D01*
G01*
X76750000Y-108000000D01*
G75*
G02*
X77000000Y-108250000I0J-250000D01*
G01*
X77000000Y-111750000D01*
G75*
G02*
X76750000Y-112000000I-250000J0D01*
G01*
X73250000Y-112000000D01*
G75*
G02*
X73000000Y-111750000I0J250000D01*
G01*
G37*
D12*
X82200000Y-110000000D03*
G36*
G01*
X162220000Y-90170000D02*
X162220000Y-89830000D01*
G75*
G02*
X162360000Y-89690000I140000J0D01*
G01*
X162640000Y-89690000D01*
G75*
G02*
X162780000Y-89830000I0J-140000D01*
G01*
X162780000Y-90170000D01*
G75*
G02*
X162640000Y-90310000I-140000J0D01*
G01*
X162360000Y-90310000D01*
G75*
G02*
X162220000Y-90170000I0J140000D01*
G01*
G37*
G36*
G01*
X163180000Y-90170000D02*
X163180000Y-89830000D01*
G75*
G02*
X163320000Y-89690000I140000J0D01*
G01*
X163600000Y-89690000D01*
G75*
G02*
X163740000Y-89830000I0J-140000D01*
G01*
X163740000Y-90170000D01*
G75*
G02*
X163600000Y-90310000I-140000J0D01*
G01*
X163320000Y-90310000D01*
G75*
G02*
X163180000Y-90170000I0J140000D01*
G01*
G37*
G36*
G01*
X72790000Y-79315000D02*
X72790000Y-79685000D01*
G75*
G02*
X72655000Y-79820000I-135000J0D01*
G01*
X72385000Y-79820000D01*
G75*
G02*
X72250000Y-79685000I0J135000D01*
G01*
X72250000Y-79315000D01*
G75*
G02*
X72385000Y-79180000I135000J0D01*
G01*
X72655000Y-79180000D01*
G75*
G02*
X72790000Y-79315000I0J-135000D01*
G01*
G37*
G36*
G01*
X71770000Y-79315000D02*
X71770000Y-79685000D01*
G75*
G02*
X71635000Y-79820000I-135000J0D01*
G01*
X71365000Y-79820000D01*
G75*
G02*
X71230000Y-79685000I0J135000D01*
G01*
X71230000Y-79315000D01*
G75*
G02*
X71365000Y-79180000I135000J0D01*
G01*
X71635000Y-79180000D01*
G75*
G02*
X71770000Y-79315000I0J-135000D01*
G01*
G37*
G36*
G01*
X93780000Y-133315000D02*
X93780000Y-133685000D01*
G75*
G02*
X93645000Y-133820000I-135000J0D01*
G01*
X93375000Y-133820000D01*
G75*
G02*
X93240000Y-133685000I0J135000D01*
G01*
X93240000Y-133315000D01*
G75*
G02*
X93375000Y-133180000I135000J0D01*
G01*
X93645000Y-133180000D01*
G75*
G02*
X93780000Y-133315000I0J-135000D01*
G01*
G37*
G36*
G01*
X92760000Y-133315000D02*
X92760000Y-133685000D01*
G75*
G02*
X92625000Y-133820000I-135000J0D01*
G01*
X92355000Y-133820000D01*
G75*
G02*
X92220000Y-133685000I0J135000D01*
G01*
X92220000Y-133315000D01*
G75*
G02*
X92355000Y-133180000I135000J0D01*
G01*
X92625000Y-133180000D01*
G75*
G02*
X92760000Y-133315000I0J-135000D01*
G01*
G37*
G36*
G01*
X157990000Y-125170000D02*
X157990000Y-124830000D01*
G75*
G02*
X158130000Y-124690000I140000J0D01*
G01*
X158410000Y-124690000D01*
G75*
G02*
X158550000Y-124830000I0J-140000D01*
G01*
X158550000Y-125170000D01*
G75*
G02*
X158410000Y-125310000I-140000J0D01*
G01*
X158130000Y-125310000D01*
G75*
G02*
X157990000Y-125170000I0J140000D01*
G01*
G37*
G36*
G01*
X158950000Y-125170000D02*
X158950000Y-124830000D01*
G75*
G02*
X159090000Y-124690000I140000J0D01*
G01*
X159370000Y-124690000D01*
G75*
G02*
X159510000Y-124830000I0J-140000D01*
G01*
X159510000Y-125170000D01*
G75*
G02*
X159370000Y-125310000I-140000J0D01*
G01*
X159090000Y-125310000D01*
G75*
G02*
X158950000Y-125170000I0J140000D01*
G01*
G37*
G36*
G01*
X164290000Y-64815000D02*
X164290000Y-65185000D01*
G75*
G02*
X164155000Y-65320000I-135000J0D01*
G01*
X163885000Y-65320000D01*
G75*
G02*
X163750000Y-65185000I0J135000D01*
G01*
X163750000Y-64815000D01*
G75*
G02*
X163885000Y-64680000I135000J0D01*
G01*
X164155000Y-64680000D01*
G75*
G02*
X164290000Y-64815000I0J-135000D01*
G01*
G37*
G36*
G01*
X163270000Y-64815000D02*
X163270000Y-65185000D01*
G75*
G02*
X163135000Y-65320000I-135000J0D01*
G01*
X162865000Y-65320000D01*
G75*
G02*
X162730000Y-65185000I0J135000D01*
G01*
X162730000Y-64815000D01*
G75*
G02*
X162865000Y-64680000I135000J0D01*
G01*
X163135000Y-64680000D01*
G75*
G02*
X163270000Y-64815000I0J-135000D01*
G01*
G37*
D10*
X175000000Y-55350000D03*
G36*
G01*
X157990000Y-105170000D02*
X157990000Y-104830000D01*
G75*
G02*
X158130000Y-104690000I140000J0D01*
G01*
X158410000Y-104690000D01*
G75*
G02*
X158550000Y-104830000I0J-140000D01*
G01*
X158550000Y-105170000D01*
G75*
G02*
X158410000Y-105310000I-140000J0D01*
G01*
X158130000Y-105310000D01*
G75*
G02*
X157990000Y-105170000I0J140000D01*
G01*
G37*
G36*
G01*
X158950000Y-105170000D02*
X158950000Y-104830000D01*
G75*
G02*
X159090000Y-104690000I140000J0D01*
G01*
X159370000Y-104690000D01*
G75*
G02*
X159510000Y-104830000I0J-140000D01*
G01*
X159510000Y-105170000D01*
G75*
G02*
X159370000Y-105310000I-140000J0D01*
G01*
X159090000Y-105310000D01*
G75*
G02*
X158950000Y-105170000I0J140000D01*
G01*
G37*
G36*
G01*
X94210000Y-99685000D02*
X94210000Y-99315000D01*
G75*
G02*
X94345000Y-99180000I135000J0D01*
G01*
X94615000Y-99180000D01*
G75*
G02*
X94750000Y-99315000I0J-135000D01*
G01*
X94750000Y-99685000D01*
G75*
G02*
X94615000Y-99820000I-135000J0D01*
G01*
X94345000Y-99820000D01*
G75*
G02*
X94210000Y-99685000I0J135000D01*
G01*
G37*
G36*
G01*
X95230000Y-99685000D02*
X95230000Y-99315000D01*
G75*
G02*
X95365000Y-99180000I135000J0D01*
G01*
X95635000Y-99180000D01*
G75*
G02*
X95770000Y-99315000I0J-135000D01*
G01*
X95770000Y-99685000D01*
G75*
G02*
X95635000Y-99820000I-135000J0D01*
G01*
X95365000Y-99820000D01*
G75*
G02*
X95230000Y-99685000I0J135000D01*
G01*
G37*
G36*
G01*
X93780000Y-113315000D02*
X93780000Y-113685000D01*
G75*
G02*
X93645000Y-113820000I-135000J0D01*
G01*
X93375000Y-113820000D01*
G75*
G02*
X93240000Y-113685000I0J135000D01*
G01*
X93240000Y-113315000D01*
G75*
G02*
X93375000Y-113180000I135000J0D01*
G01*
X93645000Y-113180000D01*
G75*
G02*
X93780000Y-113315000I0J-135000D01*
G01*
G37*
G36*
G01*
X92760000Y-113315000D02*
X92760000Y-113685000D01*
G75*
G02*
X92625000Y-113820000I-135000J0D01*
G01*
X92355000Y-113820000D01*
G75*
G02*
X92220000Y-113685000I0J135000D01*
G01*
X92220000Y-113315000D01*
G75*
G02*
X92355000Y-113180000I135000J0D01*
G01*
X92625000Y-113180000D01*
G75*
G02*
X92760000Y-113315000I0J-135000D01*
G01*
G37*
G36*
G01*
X156315000Y-71230000D02*
X156685000Y-71230000D01*
G75*
G02*
X156820000Y-71365000I0J-135000D01*
G01*
X156820000Y-71635000D01*
G75*
G02*
X156685000Y-71770000I-135000J0D01*
G01*
X156315000Y-71770000D01*
G75*
G02*
X156180000Y-71635000I0J135000D01*
G01*
X156180000Y-71365000D01*
G75*
G02*
X156315000Y-71230000I135000J0D01*
G01*
G37*
G36*
G01*
X156315000Y-72250000D02*
X156685000Y-72250000D01*
G75*
G02*
X156820000Y-72385000I0J-135000D01*
G01*
X156820000Y-72655000D01*
G75*
G02*
X156685000Y-72790000I-135000J0D01*
G01*
X156315000Y-72790000D01*
G75*
G02*
X156180000Y-72655000I0J135000D01*
G01*
X156180000Y-72385000D01*
G75*
G02*
X156315000Y-72250000I135000J0D01*
G01*
G37*
G36*
G01*
X135510000Y-67605000D02*
X135140000Y-67605000D01*
G75*
G02*
X135005000Y-67470000I0J135000D01*
G01*
X135005000Y-67200000D01*
G75*
G02*
X135140000Y-67065000I135000J0D01*
G01*
X135510000Y-67065000D01*
G75*
G02*
X135645000Y-67200000I0J-135000D01*
G01*
X135645000Y-67470000D01*
G75*
G02*
X135510000Y-67605000I-135000J0D01*
G01*
G37*
G36*
G01*
X135510000Y-66585000D02*
X135140000Y-66585000D01*
G75*
G02*
X135005000Y-66450000I0J135000D01*
G01*
X135005000Y-66180000D01*
G75*
G02*
X135140000Y-66045000I135000J0D01*
G01*
X135510000Y-66045000D01*
G75*
G02*
X135645000Y-66180000I0J-135000D01*
G01*
X135645000Y-66450000D01*
G75*
G02*
X135510000Y-66585000I-135000J0D01*
G01*
G37*
G36*
G01*
X97780000Y-73315000D02*
X97780000Y-73685000D01*
G75*
G02*
X97645000Y-73820000I-135000J0D01*
G01*
X97375000Y-73820000D01*
G75*
G02*
X97240000Y-73685000I0J135000D01*
G01*
X97240000Y-73315000D01*
G75*
G02*
X97375000Y-73180000I135000J0D01*
G01*
X97645000Y-73180000D01*
G75*
G02*
X97780000Y-73315000I0J-135000D01*
G01*
G37*
G36*
G01*
X96760000Y-73315000D02*
X96760000Y-73685000D01*
G75*
G02*
X96625000Y-73820000I-135000J0D01*
G01*
X96355000Y-73820000D01*
G75*
G02*
X96220000Y-73685000I0J135000D01*
G01*
X96220000Y-73315000D01*
G75*
G02*
X96355000Y-73180000I135000J0D01*
G01*
X96625000Y-73180000D01*
G75*
G02*
X96760000Y-73315000I0J-135000D01*
G01*
G37*
G36*
G01*
X131640000Y-111055000D02*
X132010000Y-111055000D01*
G75*
G02*
X132145000Y-111190000I0J-135000D01*
G01*
X132145000Y-111460000D01*
G75*
G02*
X132010000Y-111595000I-135000J0D01*
G01*
X131640000Y-111595000D01*
G75*
G02*
X131505000Y-111460000I0J135000D01*
G01*
X131505000Y-111190000D01*
G75*
G02*
X131640000Y-111055000I135000J0D01*
G01*
G37*
G36*
G01*
X131640000Y-112075000D02*
X132010000Y-112075000D01*
G75*
G02*
X132145000Y-112210000I0J-135000D01*
G01*
X132145000Y-112480000D01*
G75*
G02*
X132010000Y-112615000I-135000J0D01*
G01*
X131640000Y-112615000D01*
G75*
G02*
X131505000Y-112480000I0J135000D01*
G01*
X131505000Y-112210000D01*
G75*
G02*
X131640000Y-112075000I135000J0D01*
G01*
G37*
G36*
G01*
X92790000Y-119315000D02*
X92790000Y-119685000D01*
G75*
G02*
X92655000Y-119820000I-135000J0D01*
G01*
X92385000Y-119820000D01*
G75*
G02*
X92250000Y-119685000I0J135000D01*
G01*
X92250000Y-119315000D01*
G75*
G02*
X92385000Y-119180000I135000J0D01*
G01*
X92655000Y-119180000D01*
G75*
G02*
X92790000Y-119315000I0J-135000D01*
G01*
G37*
G36*
G01*
X91770000Y-119315000D02*
X91770000Y-119685000D01*
G75*
G02*
X91635000Y-119820000I-135000J0D01*
G01*
X91365000Y-119820000D01*
G75*
G02*
X91230000Y-119685000I0J135000D01*
G01*
X91230000Y-119315000D01*
G75*
G02*
X91365000Y-119180000I135000J0D01*
G01*
X91635000Y-119180000D01*
G75*
G02*
X91770000Y-119315000I0J-135000D01*
G01*
G37*
G36*
G01*
X73780000Y-73315000D02*
X73780000Y-73685000D01*
G75*
G02*
X73645000Y-73820000I-135000J0D01*
G01*
X73375000Y-73820000D01*
G75*
G02*
X73240000Y-73685000I0J135000D01*
G01*
X73240000Y-73315000D01*
G75*
G02*
X73375000Y-73180000I135000J0D01*
G01*
X73645000Y-73180000D01*
G75*
G02*
X73780000Y-73315000I0J-135000D01*
G01*
G37*
G36*
G01*
X72760000Y-73315000D02*
X72760000Y-73685000D01*
G75*
G02*
X72625000Y-73820000I-135000J0D01*
G01*
X72355000Y-73820000D01*
G75*
G02*
X72220000Y-73685000I0J135000D01*
G01*
X72220000Y-73315000D01*
G75*
G02*
X72355000Y-73180000I135000J0D01*
G01*
X72625000Y-73180000D01*
G75*
G02*
X72760000Y-73315000I0J-135000D01*
G01*
G37*
G36*
G01*
X135510000Y-127605000D02*
X135140000Y-127605000D01*
G75*
G02*
X135005000Y-127470000I0J135000D01*
G01*
X135005000Y-127200000D01*
G75*
G02*
X135140000Y-127065000I135000J0D01*
G01*
X135510000Y-127065000D01*
G75*
G02*
X135645000Y-127200000I0J-135000D01*
G01*
X135645000Y-127470000D01*
G75*
G02*
X135510000Y-127605000I-135000J0D01*
G01*
G37*
G36*
G01*
X135510000Y-126585000D02*
X135140000Y-126585000D01*
G75*
G02*
X135005000Y-126450000I0J135000D01*
G01*
X135005000Y-126180000D01*
G75*
G02*
X135140000Y-126045000I135000J0D01*
G01*
X135510000Y-126045000D01*
G75*
G02*
X135645000Y-126180000I0J-135000D01*
G01*
X135645000Y-126450000D01*
G75*
G02*
X135510000Y-126585000I-135000J0D01*
G01*
G37*
G36*
G01*
X139615000Y-124640000D02*
X139615000Y-125010000D01*
G75*
G02*
X139480000Y-125145000I-135000J0D01*
G01*
X139210000Y-125145000D01*
G75*
G02*
X139075000Y-125010000I0J135000D01*
G01*
X139075000Y-124640000D01*
G75*
G02*
X139210000Y-124505000I135000J0D01*
G01*
X139480000Y-124505000D01*
G75*
G02*
X139615000Y-124640000I0J-135000D01*
G01*
G37*
G36*
G01*
X138595000Y-124640000D02*
X138595000Y-125010000D01*
G75*
G02*
X138460000Y-125145000I-135000J0D01*
G01*
X138190000Y-125145000D01*
G75*
G02*
X138055000Y-125010000I0J135000D01*
G01*
X138055000Y-124640000D01*
G75*
G02*
X138190000Y-124505000I135000J0D01*
G01*
X138460000Y-124505000D01*
G75*
G02*
X138595000Y-124640000I0J-135000D01*
G01*
G37*
G36*
G01*
X133315000Y-104995000D02*
X133315000Y-104655000D01*
G75*
G02*
X133455000Y-104515000I140000J0D01*
G01*
X133735000Y-104515000D01*
G75*
G02*
X133875000Y-104655000I0J-140000D01*
G01*
X133875000Y-104995000D01*
G75*
G02*
X133735000Y-105135000I-140000J0D01*
G01*
X133455000Y-105135000D01*
G75*
G02*
X133315000Y-104995000I0J140000D01*
G01*
G37*
G36*
G01*
X134275000Y-104995000D02*
X134275000Y-104655000D01*
G75*
G02*
X134415000Y-104515000I140000J0D01*
G01*
X134695000Y-104515000D01*
G75*
G02*
X134835000Y-104655000I0J-140000D01*
G01*
X134835000Y-104995000D01*
G75*
G02*
X134695000Y-105135000I-140000J0D01*
G01*
X134415000Y-105135000D01*
G75*
G02*
X134275000Y-104995000I0J140000D01*
G01*
G37*
D14*
X125000000Y-70000000D03*
D15*
X121825000Y-73175000D03*
X121825000Y-66825000D03*
X128175000Y-73175000D03*
X128175000Y-66825000D03*
D11*
X161010000Y-71400000D03*
X161010000Y-70000000D03*
G36*
G01*
X161780000Y-84815000D02*
X161780000Y-85185000D01*
G75*
G02*
X161645000Y-85320000I-135000J0D01*
G01*
X161375000Y-85320000D01*
G75*
G02*
X161240000Y-85185000I0J135000D01*
G01*
X161240000Y-84815000D01*
G75*
G02*
X161375000Y-84680000I135000J0D01*
G01*
X161645000Y-84680000D01*
G75*
G02*
X161780000Y-84815000I0J-135000D01*
G01*
G37*
G36*
G01*
X160760000Y-84815000D02*
X160760000Y-85185000D01*
G75*
G02*
X160625000Y-85320000I-135000J0D01*
G01*
X160355000Y-85320000D01*
G75*
G02*
X160220000Y-85185000I0J135000D01*
G01*
X160220000Y-84815000D01*
G75*
G02*
X160355000Y-84680000I135000J0D01*
G01*
X160625000Y-84680000D01*
G75*
G02*
X160760000Y-84815000I0J-135000D01*
G01*
G37*
G36*
G01*
X73780000Y-113315000D02*
X73780000Y-113685000D01*
G75*
G02*
X73645000Y-113820000I-135000J0D01*
G01*
X73375000Y-113820000D01*
G75*
G02*
X73240000Y-113685000I0J135000D01*
G01*
X73240000Y-113315000D01*
G75*
G02*
X73375000Y-113180000I135000J0D01*
G01*
X73645000Y-113180000D01*
G75*
G02*
X73780000Y-113315000I0J-135000D01*
G01*
G37*
G36*
G01*
X72760000Y-113315000D02*
X72760000Y-113685000D01*
G75*
G02*
X72625000Y-113820000I-135000J0D01*
G01*
X72355000Y-113820000D01*
G75*
G02*
X72220000Y-113685000I0J135000D01*
G01*
X72220000Y-113315000D01*
G75*
G02*
X72355000Y-113180000I135000J0D01*
G01*
X72625000Y-113180000D01*
G75*
G02*
X72760000Y-113315000I0J-135000D01*
G01*
G37*
G36*
G01*
X131545000Y-90010000D02*
X131545000Y-89640000D01*
G75*
G02*
X131680000Y-89505000I135000J0D01*
G01*
X131950000Y-89505000D01*
G75*
G02*
X132085000Y-89640000I0J-135000D01*
G01*
X132085000Y-90010000D01*
G75*
G02*
X131950000Y-90145000I-135000J0D01*
G01*
X131680000Y-90145000D01*
G75*
G02*
X131545000Y-90010000I0J135000D01*
G01*
G37*
G36*
G01*
X132565000Y-90010000D02*
X132565000Y-89640000D01*
G75*
G02*
X132700000Y-89505000I135000J0D01*
G01*
X132970000Y-89505000D01*
G75*
G02*
X133105000Y-89640000I0J-135000D01*
G01*
X133105000Y-90010000D01*
G75*
G02*
X132970000Y-90145000I-135000J0D01*
G01*
X132700000Y-90145000D01*
G75*
G02*
X132565000Y-90010000I0J135000D01*
G01*
G37*
X134325000Y-69825000D03*
X134325000Y-71225000D03*
G36*
G01*
X156230000Y-70185000D02*
X156230000Y-69815000D01*
G75*
G02*
X156365000Y-69680000I135000J0D01*
G01*
X156635000Y-69680000D01*
G75*
G02*
X156770000Y-69815000I0J-135000D01*
G01*
X156770000Y-70185000D01*
G75*
G02*
X156635000Y-70320000I-135000J0D01*
G01*
X156365000Y-70320000D01*
G75*
G02*
X156230000Y-70185000I0J135000D01*
G01*
G37*
G36*
G01*
X157250000Y-70185000D02*
X157250000Y-69815000D01*
G75*
G02*
X157385000Y-69680000I135000J0D01*
G01*
X157655000Y-69680000D01*
G75*
G02*
X157790000Y-69815000I0J-135000D01*
G01*
X157790000Y-70185000D01*
G75*
G02*
X157655000Y-70320000I-135000J0D01*
G01*
X157385000Y-70320000D01*
G75*
G02*
X157250000Y-70185000I0J135000D01*
G01*
G37*
G36*
G01*
X162220000Y-70170000D02*
X162220000Y-69830000D01*
G75*
G02*
X162360000Y-69690000I140000J0D01*
G01*
X162640000Y-69690000D01*
G75*
G02*
X162780000Y-69830000I0J-140000D01*
G01*
X162780000Y-70170000D01*
G75*
G02*
X162640000Y-70310000I-140000J0D01*
G01*
X162360000Y-70310000D01*
G75*
G02*
X162220000Y-70170000I0J140000D01*
G01*
G37*
G36*
G01*
X163180000Y-70170000D02*
X163180000Y-69830000D01*
G75*
G02*
X163320000Y-69690000I140000J0D01*
G01*
X163600000Y-69690000D01*
G75*
G02*
X163740000Y-69830000I0J-140000D01*
G01*
X163740000Y-70170000D01*
G75*
G02*
X163600000Y-70310000I-140000J0D01*
G01*
X163320000Y-70310000D01*
G75*
G02*
X163180000Y-70170000I0J140000D01*
G01*
G37*
X159000000Y-90000000D03*
X159000000Y-91400000D03*
G36*
G01*
X137545000Y-109995000D02*
X137545000Y-109655000D01*
G75*
G02*
X137685000Y-109515000I140000J0D01*
G01*
X137965000Y-109515000D01*
G75*
G02*
X138105000Y-109655000I0J-140000D01*
G01*
X138105000Y-109995000D01*
G75*
G02*
X137965000Y-110135000I-140000J0D01*
G01*
X137685000Y-110135000D01*
G75*
G02*
X137545000Y-109995000I0J140000D01*
G01*
G37*
G36*
G01*
X138505000Y-109995000D02*
X138505000Y-109655000D01*
G75*
G02*
X138645000Y-109515000I140000J0D01*
G01*
X138925000Y-109515000D01*
G75*
G02*
X139065000Y-109655000I0J-140000D01*
G01*
X139065000Y-109995000D01*
G75*
G02*
X138925000Y-110135000I-140000J0D01*
G01*
X138645000Y-110135000D01*
G75*
G02*
X138505000Y-109995000I0J140000D01*
G01*
G37*
G36*
G01*
X95700000Y-78175000D02*
X95400000Y-78175000D01*
G75*
G02*
X95250000Y-78025000I0J150000D01*
G01*
X95250000Y-76850000D01*
G75*
G02*
X95400000Y-76700000I150000J0D01*
G01*
X95700000Y-76700000D01*
G75*
G02*
X95850000Y-76850000I0J-150000D01*
G01*
X95850000Y-78025000D01*
G75*
G02*
X95700000Y-78175000I-150000J0D01*
G01*
G37*
G36*
G01*
X97600000Y-78175000D02*
X97300000Y-78175000D01*
G75*
G02*
X97150000Y-78025000I0J150000D01*
G01*
X97150000Y-76850000D01*
G75*
G02*
X97300000Y-76700000I150000J0D01*
G01*
X97600000Y-76700000D01*
G75*
G02*
X97750000Y-76850000I0J-150000D01*
G01*
X97750000Y-78025000D01*
G75*
G02*
X97600000Y-78175000I-150000J0D01*
G01*
G37*
G36*
G01*
X96650000Y-76300000D02*
X96350000Y-76300000D01*
G75*
G02*
X96200000Y-76150000I0J150000D01*
G01*
X96200000Y-74975000D01*
G75*
G02*
X96350000Y-74825000I150000J0D01*
G01*
X96650000Y-74825000D01*
G75*
G02*
X96800000Y-74975000I0J-150000D01*
G01*
X96800000Y-76150000D01*
G75*
G02*
X96650000Y-76300000I-150000J0D01*
G01*
G37*
G36*
G01*
X140510000Y-91115000D02*
X140140000Y-91115000D01*
G75*
G02*
X140005000Y-90980000I0J135000D01*
G01*
X140005000Y-90710000D01*
G75*
G02*
X140140000Y-90575000I135000J0D01*
G01*
X140510000Y-90575000D01*
G75*
G02*
X140645000Y-90710000I0J-135000D01*
G01*
X140645000Y-90980000D01*
G75*
G02*
X140510000Y-91115000I-135000J0D01*
G01*
G37*
G36*
G01*
X140510000Y-90095000D02*
X140140000Y-90095000D01*
G75*
G02*
X140005000Y-89960000I0J135000D01*
G01*
X140005000Y-89690000D01*
G75*
G02*
X140140000Y-89555000I135000J0D01*
G01*
X140510000Y-89555000D01*
G75*
G02*
X140645000Y-89690000I0J-135000D01*
G01*
X140645000Y-89960000D01*
G75*
G02*
X140510000Y-90095000I-135000J0D01*
G01*
G37*
G36*
G01*
X132815000Y-106495000D02*
X132815000Y-106155000D01*
G75*
G02*
X132955000Y-106015000I140000J0D01*
G01*
X133235000Y-106015000D01*
G75*
G02*
X133375000Y-106155000I0J-140000D01*
G01*
X133375000Y-106495000D01*
G75*
G02*
X133235000Y-106635000I-140000J0D01*
G01*
X132955000Y-106635000D01*
G75*
G02*
X132815000Y-106495000I0J140000D01*
G01*
G37*
G36*
G01*
X133775000Y-106495000D02*
X133775000Y-106155000D01*
G75*
G02*
X133915000Y-106015000I140000J0D01*
G01*
X134195000Y-106015000D01*
G75*
G02*
X134335000Y-106155000I0J-140000D01*
G01*
X134335000Y-106495000D01*
G75*
G02*
X134195000Y-106635000I-140000J0D01*
G01*
X133915000Y-106635000D01*
G75*
G02*
X133775000Y-106495000I0J140000D01*
G01*
G37*
G36*
G01*
X92790000Y-99315000D02*
X92790000Y-99685000D01*
G75*
G02*
X92655000Y-99820000I-135000J0D01*
G01*
X92385000Y-99820000D01*
G75*
G02*
X92250000Y-99685000I0J135000D01*
G01*
X92250000Y-99315000D01*
G75*
G02*
X92385000Y-99180000I135000J0D01*
G01*
X92655000Y-99180000D01*
G75*
G02*
X92790000Y-99315000I0J-135000D01*
G01*
G37*
G36*
G01*
X91770000Y-99315000D02*
X91770000Y-99685000D01*
G75*
G02*
X91635000Y-99820000I-135000J0D01*
G01*
X91365000Y-99820000D01*
G75*
G02*
X91230000Y-99685000I0J135000D01*
G01*
X91230000Y-99315000D01*
G75*
G02*
X91365000Y-99180000I135000J0D01*
G01*
X91635000Y-99180000D01*
G75*
G02*
X91770000Y-99315000I0J-135000D01*
G01*
G37*
G36*
G01*
X94210000Y-119685000D02*
X94210000Y-119315000D01*
G75*
G02*
X94345000Y-119180000I135000J0D01*
G01*
X94615000Y-119180000D01*
G75*
G02*
X94750000Y-119315000I0J-135000D01*
G01*
X94750000Y-119685000D01*
G75*
G02*
X94615000Y-119820000I-135000J0D01*
G01*
X94345000Y-119820000D01*
G75*
G02*
X94210000Y-119685000I0J135000D01*
G01*
G37*
G36*
G01*
X95230000Y-119685000D02*
X95230000Y-119315000D01*
G75*
G02*
X95365000Y-119180000I135000J0D01*
G01*
X95635000Y-119180000D01*
G75*
G02*
X95770000Y-119315000I0J-135000D01*
G01*
X95770000Y-119685000D01*
G75*
G02*
X95635000Y-119820000I-135000J0D01*
G01*
X95365000Y-119820000D01*
G75*
G02*
X95230000Y-119685000I0J135000D01*
G01*
G37*
G36*
G01*
X73000000Y-91750000D02*
X73000000Y-88250000D01*
G75*
G02*
X73250000Y-88000000I250000J0D01*
G01*
X76750000Y-88000000D01*
G75*
G02*
X77000000Y-88250000I0J-250000D01*
G01*
X77000000Y-91750000D01*
G75*
G02*
X76750000Y-92000000I-250000J0D01*
G01*
X73250000Y-92000000D01*
G75*
G02*
X73000000Y-91750000I0J250000D01*
G01*
G37*
D12*
X82200000Y-90000000D03*
G36*
G01*
X77780000Y-113315000D02*
X77780000Y-113685000D01*
G75*
G02*
X77645000Y-113820000I-135000J0D01*
G01*
X77375000Y-113820000D01*
G75*
G02*
X77240000Y-113685000I0J135000D01*
G01*
X77240000Y-113315000D01*
G75*
G02*
X77375000Y-113180000I135000J0D01*
G01*
X77645000Y-113180000D01*
G75*
G02*
X77780000Y-113315000I0J-135000D01*
G01*
G37*
G36*
G01*
X76760000Y-113315000D02*
X76760000Y-113685000D01*
G75*
G02*
X76625000Y-113820000I-135000J0D01*
G01*
X76355000Y-113820000D01*
G75*
G02*
X76220000Y-113685000I0J135000D01*
G01*
X76220000Y-113315000D01*
G75*
G02*
X76355000Y-113180000I135000J0D01*
G01*
X76625000Y-113180000D01*
G75*
G02*
X76760000Y-113315000I0J-135000D01*
G01*
G37*
D11*
X159010000Y-133000000D03*
X159010000Y-134400000D03*
X134325000Y-72825000D03*
X134325000Y-74225000D03*
X161010000Y-114400000D03*
X161010000Y-113000000D03*
D13*
X161850000Y-128450000D03*
X162500000Y-128450000D03*
X163150000Y-128450000D03*
X163150000Y-126550000D03*
X161850000Y-126550000D03*
G36*
G01*
X94210000Y-139685000D02*
X94210000Y-139315000D01*
G75*
G02*
X94345000Y-139180000I135000J0D01*
G01*
X94615000Y-139180000D01*
G75*
G02*
X94750000Y-139315000I0J-135000D01*
G01*
X94750000Y-139685000D01*
G75*
G02*
X94615000Y-139820000I-135000J0D01*
G01*
X94345000Y-139820000D01*
G75*
G02*
X94210000Y-139685000I0J135000D01*
G01*
G37*
G36*
G01*
X95230000Y-139685000D02*
X95230000Y-139315000D01*
G75*
G02*
X95365000Y-139180000I135000J0D01*
G01*
X95635000Y-139180000D01*
G75*
G02*
X95770000Y-139315000I0J-135000D01*
G01*
X95770000Y-139685000D01*
G75*
G02*
X95635000Y-139820000I-135000J0D01*
G01*
X95365000Y-139820000D01*
G75*
G02*
X95230000Y-139685000I0J135000D01*
G01*
G37*
G36*
G01*
X135510000Y-107605000D02*
X135140000Y-107605000D01*
G75*
G02*
X135005000Y-107470000I0J135000D01*
G01*
X135005000Y-107200000D01*
G75*
G02*
X135140000Y-107065000I135000J0D01*
G01*
X135510000Y-107065000D01*
G75*
G02*
X135645000Y-107200000I0J-135000D01*
G01*
X135645000Y-107470000D01*
G75*
G02*
X135510000Y-107605000I-135000J0D01*
G01*
G37*
G36*
G01*
X135510000Y-106585000D02*
X135140000Y-106585000D01*
G75*
G02*
X135005000Y-106450000I0J135000D01*
G01*
X135005000Y-106180000D01*
G75*
G02*
X135140000Y-106045000I135000J0D01*
G01*
X135510000Y-106045000D01*
G75*
G02*
X135645000Y-106180000I0J-135000D01*
G01*
X135645000Y-106450000D01*
G75*
G02*
X135510000Y-106585000I-135000J0D01*
G01*
G37*
G36*
G01*
X140495000Y-87565000D02*
X140155000Y-87565000D01*
G75*
G02*
X140015000Y-87425000I0J140000D01*
G01*
X140015000Y-87145000D01*
G75*
G02*
X140155000Y-87005000I140000J0D01*
G01*
X140495000Y-87005000D01*
G75*
G02*
X140635000Y-87145000I0J-140000D01*
G01*
X140635000Y-87425000D01*
G75*
G02*
X140495000Y-87565000I-140000J0D01*
G01*
G37*
G36*
G01*
X140495000Y-86605000D02*
X140155000Y-86605000D01*
G75*
G02*
X140015000Y-86465000I0J140000D01*
G01*
X140015000Y-86185000D01*
G75*
G02*
X140155000Y-86045000I140000J0D01*
G01*
X140495000Y-86045000D01*
G75*
G02*
X140635000Y-86185000I0J-140000D01*
G01*
X140635000Y-86465000D01*
G75*
G02*
X140495000Y-86605000I-140000J0D01*
G01*
G37*
D11*
X136335000Y-131225000D03*
X136335000Y-129825000D03*
G36*
G01*
X53000000Y-101750000D02*
X53000000Y-98250000D01*
G75*
G02*
X53250000Y-98000000I250000J0D01*
G01*
X56750000Y-98000000D01*
G75*
G02*
X57000000Y-98250000I0J-250000D01*
G01*
X57000000Y-101750000D01*
G75*
G02*
X56750000Y-102000000I-250000J0D01*
G01*
X53250000Y-102000000D01*
G75*
G02*
X53000000Y-101750000I0J250000D01*
G01*
G37*
X134335000Y-132825000D03*
X134335000Y-134225000D03*
G36*
G01*
X131640000Y-131045000D02*
X132010000Y-131045000D01*
G75*
G02*
X132145000Y-131180000I0J-135000D01*
G01*
X132145000Y-131450000D01*
G75*
G02*
X132010000Y-131585000I-135000J0D01*
G01*
X131640000Y-131585000D01*
G75*
G02*
X131505000Y-131450000I0J135000D01*
G01*
X131505000Y-131180000D01*
G75*
G02*
X131640000Y-131045000I135000J0D01*
G01*
G37*
G36*
G01*
X131640000Y-132065000D02*
X132010000Y-132065000D01*
G75*
G02*
X132145000Y-132200000I0J-135000D01*
G01*
X132145000Y-132470000D01*
G75*
G02*
X132010000Y-132605000I-135000J0D01*
G01*
X131640000Y-132605000D01*
G75*
G02*
X131505000Y-132470000I0J135000D01*
G01*
X131505000Y-132200000D01*
G75*
G02*
X131640000Y-132065000I135000J0D01*
G01*
G37*
G36*
G01*
X160185000Y-67780000D02*
X159815000Y-67780000D01*
G75*
G02*
X159680000Y-67645000I0J135000D01*
G01*
X159680000Y-67375000D01*
G75*
G02*
X159815000Y-67240000I135000J0D01*
G01*
X160185000Y-67240000D01*
G75*
G02*
X160320000Y-67375000I0J-135000D01*
G01*
X160320000Y-67645000D01*
G75*
G02*
X160185000Y-67780000I-135000J0D01*
G01*
G37*
G36*
G01*
X160185000Y-66760000D02*
X159815000Y-66760000D01*
G75*
G02*
X159680000Y-66625000I0J135000D01*
G01*
X159680000Y-66355000D01*
G75*
G02*
X159815000Y-66220000I135000J0D01*
G01*
X160185000Y-66220000D01*
G75*
G02*
X160320000Y-66355000I0J-135000D01*
G01*
X160320000Y-66625000D01*
G75*
G02*
X160185000Y-66760000I-135000J0D01*
G01*
G37*
G36*
G01*
X132815000Y-66495000D02*
X132815000Y-66155000D01*
G75*
G02*
X132955000Y-66015000I140000J0D01*
G01*
X133235000Y-66015000D01*
G75*
G02*
X133375000Y-66155000I0J-140000D01*
G01*
X133375000Y-66495000D01*
G75*
G02*
X133235000Y-66635000I-140000J0D01*
G01*
X132955000Y-66635000D01*
G75*
G02*
X132815000Y-66495000I0J140000D01*
G01*
G37*
G36*
G01*
X133775000Y-66495000D02*
X133775000Y-66155000D01*
G75*
G02*
X133915000Y-66015000I140000J0D01*
G01*
X134195000Y-66015000D01*
G75*
G02*
X134335000Y-66155000I0J-140000D01*
G01*
X134335000Y-66495000D01*
G75*
G02*
X134195000Y-66635000I-140000J0D01*
G01*
X133915000Y-66635000D01*
G75*
G02*
X133775000Y-66495000I0J140000D01*
G01*
G37*
X134325000Y-112825000D03*
X134325000Y-114225000D03*
G36*
G01*
X72790000Y-139315000D02*
X72790000Y-139685000D01*
G75*
G02*
X72655000Y-139820000I-135000J0D01*
G01*
X72385000Y-139820000D01*
G75*
G02*
X72250000Y-139685000I0J135000D01*
G01*
X72250000Y-139315000D01*
G75*
G02*
X72385000Y-139180000I135000J0D01*
G01*
X72655000Y-139180000D01*
G75*
G02*
X72790000Y-139315000I0J-135000D01*
G01*
G37*
G36*
G01*
X71770000Y-139315000D02*
X71770000Y-139685000D01*
G75*
G02*
X71635000Y-139820000I-135000J0D01*
G01*
X71365000Y-139820000D01*
G75*
G02*
X71230000Y-139685000I0J135000D01*
G01*
X71230000Y-139315000D01*
G75*
G02*
X71365000Y-139180000I135000J0D01*
G01*
X71635000Y-139180000D01*
G75*
G02*
X71770000Y-139315000I0J-135000D01*
G01*
G37*
G36*
G01*
X165170000Y-127760000D02*
X164830000Y-127760000D01*
G75*
G02*
X164690000Y-127620000I0J140000D01*
G01*
X164690000Y-127340000D01*
G75*
G02*
X164830000Y-127200000I140000J0D01*
G01*
X165170000Y-127200000D01*
G75*
G02*
X165310000Y-127340000I0J-140000D01*
G01*
X165310000Y-127620000D01*
G75*
G02*
X165170000Y-127760000I-140000J0D01*
G01*
G37*
G36*
G01*
X165170000Y-126800000D02*
X164830000Y-126800000D01*
G75*
G02*
X164690000Y-126660000I0J140000D01*
G01*
X164690000Y-126380000D01*
G75*
G02*
X164830000Y-126240000I140000J0D01*
G01*
X165170000Y-126240000D01*
G75*
G02*
X165310000Y-126380000I0J-140000D01*
G01*
X165310000Y-126660000D01*
G75*
G02*
X165170000Y-126800000I-140000J0D01*
G01*
G37*
G36*
G01*
X161780000Y-104815000D02*
X161780000Y-105185000D01*
G75*
G02*
X161645000Y-105320000I-135000J0D01*
G01*
X161375000Y-105320000D01*
G75*
G02*
X161240000Y-105185000I0J135000D01*
G01*
X161240000Y-104815000D01*
G75*
G02*
X161375000Y-104680000I135000J0D01*
G01*
X161645000Y-104680000D01*
G75*
G02*
X161780000Y-104815000I0J-135000D01*
G01*
G37*
G36*
G01*
X160760000Y-104815000D02*
X160760000Y-105185000D01*
G75*
G02*
X160625000Y-105320000I-135000J0D01*
G01*
X160355000Y-105320000D01*
G75*
G02*
X160220000Y-105185000I0J135000D01*
G01*
X160220000Y-104815000D01*
G75*
G02*
X160355000Y-104680000I135000J0D01*
G01*
X160625000Y-104680000D01*
G75*
G02*
X160760000Y-104815000I0J-135000D01*
G01*
G37*
G36*
G01*
X91700000Y-98175000D02*
X91400000Y-98175000D01*
G75*
G02*
X91250000Y-98025000I0J150000D01*
G01*
X91250000Y-96850000D01*
G75*
G02*
X91400000Y-96700000I150000J0D01*
G01*
X91700000Y-96700000D01*
G75*
G02*
X91850000Y-96850000I0J-150000D01*
G01*
X91850000Y-98025000D01*
G75*
G02*
X91700000Y-98175000I-150000J0D01*
G01*
G37*
G36*
G01*
X93600000Y-98175000D02*
X93300000Y-98175000D01*
G75*
G02*
X93150000Y-98025000I0J150000D01*
G01*
X93150000Y-96850000D01*
G75*
G02*
X93300000Y-96700000I150000J0D01*
G01*
X93600000Y-96700000D01*
G75*
G02*
X93750000Y-96850000I0J-150000D01*
G01*
X93750000Y-98025000D01*
G75*
G02*
X93600000Y-98175000I-150000J0D01*
G01*
G37*
G36*
G01*
X92650000Y-96300000D02*
X92350000Y-96300000D01*
G75*
G02*
X92200000Y-96150000I0J150000D01*
G01*
X92200000Y-94975000D01*
G75*
G02*
X92350000Y-94825000I150000J0D01*
G01*
X92650000Y-94825000D01*
G75*
G02*
X92800000Y-94975000I0J-150000D01*
G01*
X92800000Y-96150000D01*
G75*
G02*
X92650000Y-96300000I-150000J0D01*
G01*
G37*
G36*
G01*
X165170000Y-107740000D02*
X164830000Y-107740000D01*
G75*
G02*
X164690000Y-107600000I0J140000D01*
G01*
X164690000Y-107320000D01*
G75*
G02*
X164830000Y-107180000I140000J0D01*
G01*
X165170000Y-107180000D01*
G75*
G02*
X165310000Y-107320000I0J-140000D01*
G01*
X165310000Y-107600000D01*
G75*
G02*
X165170000Y-107740000I-140000J0D01*
G01*
G37*
G36*
G01*
X165170000Y-106780000D02*
X164830000Y-106780000D01*
G75*
G02*
X164690000Y-106640000I0J140000D01*
G01*
X164690000Y-106360000D01*
G75*
G02*
X164830000Y-106220000I140000J0D01*
G01*
X165170000Y-106220000D01*
G75*
G02*
X165310000Y-106360000I0J-140000D01*
G01*
X165310000Y-106640000D01*
G75*
G02*
X165170000Y-106780000I-140000J0D01*
G01*
G37*
D14*
X150000000Y-90000000D03*
D15*
X146825000Y-93175000D03*
X153175000Y-93175000D03*
X153175000Y-86825000D03*
X146825000Y-86825000D03*
G36*
G01*
X137105000Y-124640000D02*
X137105000Y-125010000D01*
G75*
G02*
X136970000Y-125145000I-135000J0D01*
G01*
X136700000Y-125145000D01*
G75*
G02*
X136565000Y-125010000I0J135000D01*
G01*
X136565000Y-124640000D01*
G75*
G02*
X136700000Y-124505000I135000J0D01*
G01*
X136970000Y-124505000D01*
G75*
G02*
X137105000Y-124640000I0J-135000D01*
G01*
G37*
G36*
G01*
X136085000Y-124640000D02*
X136085000Y-125010000D01*
G75*
G02*
X135950000Y-125145000I-135000J0D01*
G01*
X135680000Y-125145000D01*
G75*
G02*
X135545000Y-125010000I0J135000D01*
G01*
X135545000Y-124640000D01*
G75*
G02*
X135680000Y-124505000I135000J0D01*
G01*
X135950000Y-124505000D01*
G75*
G02*
X136085000Y-124640000I0J-135000D01*
G01*
G37*
G36*
G01*
X75700000Y-98175000D02*
X75400000Y-98175000D01*
G75*
G02*
X75250000Y-98025000I0J150000D01*
G01*
X75250000Y-96850000D01*
G75*
G02*
X75400000Y-96700000I150000J0D01*
G01*
X75700000Y-96700000D01*
G75*
G02*
X75850000Y-96850000I0J-150000D01*
G01*
X75850000Y-98025000D01*
G75*
G02*
X75700000Y-98175000I-150000J0D01*
G01*
G37*
G36*
G01*
X77600000Y-98175000D02*
X77300000Y-98175000D01*
G75*
G02*
X77150000Y-98025000I0J150000D01*
G01*
X77150000Y-96850000D01*
G75*
G02*
X77300000Y-96700000I150000J0D01*
G01*
X77600000Y-96700000D01*
G75*
G02*
X77750000Y-96850000I0J-150000D01*
G01*
X77750000Y-98025000D01*
G75*
G02*
X77600000Y-98175000I-150000J0D01*
G01*
G37*
G36*
G01*
X76650000Y-96300000D02*
X76350000Y-96300000D01*
G75*
G02*
X76200000Y-96150000I0J150000D01*
G01*
X76200000Y-94975000D01*
G75*
G02*
X76350000Y-94825000I150000J0D01*
G01*
X76650000Y-94825000D01*
G75*
G02*
X76800000Y-94975000I0J-150000D01*
G01*
X76800000Y-96150000D01*
G75*
G02*
X76650000Y-96300000I-150000J0D01*
G01*
G37*
D16*
X174110000Y-135750000D03*
D17*
X176650000Y-135750000D03*
X174110000Y-133210000D03*
X176650000Y-133210000D03*
X174110000Y-130670000D03*
X176650000Y-130670000D03*
X174110000Y-128130000D03*
X176650000Y-128130000D03*
X174110000Y-125590000D03*
X176650000Y-125590000D03*
X174110000Y-123050000D03*
X176650000Y-123050000D03*
X174110000Y-120510000D03*
X176650000Y-120510000D03*
X174110000Y-117970000D03*
X176650000Y-117970000D03*
X174110000Y-115430000D03*
X176650000Y-115430000D03*
X174110000Y-112890000D03*
X176650000Y-112890000D03*
X174110000Y-110350000D03*
X176650000Y-110350000D03*
X174110000Y-107810000D03*
X176650000Y-107810000D03*
X174110000Y-105270000D03*
X176650000Y-105270000D03*
X174110000Y-102730000D03*
X176650000Y-102730000D03*
X174110000Y-100190000D03*
X176650000Y-100190000D03*
X174110000Y-97650000D03*
X176650000Y-97650000D03*
X174110000Y-95110000D03*
X176650000Y-95110000D03*
X174110000Y-92570000D03*
X176650000Y-92570000D03*
X174110000Y-90030000D03*
X176650000Y-90030000D03*
X174110000Y-87490000D03*
X176650000Y-87490000D03*
G36*
G01*
X95700000Y-138175000D02*
X95400000Y-138175000D01*
G75*
G02*
X95250000Y-138025000I0J150000D01*
G01*
X95250000Y-136850000D01*
G75*
G02*
X95400000Y-136700000I150000J0D01*
G01*
X95700000Y-136700000D01*
G75*
G02*
X95850000Y-136850000I0J-150000D01*
G01*
X95850000Y-138025000D01*
G75*
G02*
X95700000Y-138175000I-150000J0D01*
G01*
G37*
G36*
G01*
X97600000Y-138175000D02*
X97300000Y-138175000D01*
G75*
G02*
X97150000Y-138025000I0J150000D01*
G01*
X97150000Y-136850000D01*
G75*
G02*
X97300000Y-136700000I150000J0D01*
G01*
X97600000Y-136700000D01*
G75*
G02*
X97750000Y-136850000I0J-150000D01*
G01*
X97750000Y-138025000D01*
G75*
G02*
X97600000Y-138175000I-150000J0D01*
G01*
G37*
G36*
G01*
X96650000Y-136300000D02*
X96350000Y-136300000D01*
G75*
G02*
X96200000Y-136150000I0J150000D01*
G01*
X96200000Y-134975000D01*
G75*
G02*
X96350000Y-134825000I150000J0D01*
G01*
X96650000Y-134825000D01*
G75*
G02*
X96800000Y-134975000I0J-150000D01*
G01*
X96800000Y-136150000D01*
G75*
G02*
X96650000Y-136300000I-150000J0D01*
G01*
G37*
G36*
G01*
X97780000Y-93315000D02*
X97780000Y-93685000D01*
G75*
G02*
X97645000Y-93820000I-135000J0D01*
G01*
X97375000Y-93820000D01*
G75*
G02*
X97240000Y-93685000I0J135000D01*
G01*
X97240000Y-93315000D01*
G75*
G02*
X97375000Y-93180000I135000J0D01*
G01*
X97645000Y-93180000D01*
G75*
G02*
X97780000Y-93315000I0J-135000D01*
G01*
G37*
G36*
G01*
X96760000Y-93315000D02*
X96760000Y-93685000D01*
G75*
G02*
X96625000Y-93820000I-135000J0D01*
G01*
X96355000Y-93820000D01*
G75*
G02*
X96220000Y-93685000I0J135000D01*
G01*
X96220000Y-93315000D01*
G75*
G02*
X96355000Y-93180000I135000J0D01*
G01*
X96625000Y-93180000D01*
G75*
G02*
X96760000Y-93315000I0J-135000D01*
G01*
G37*
D11*
X159000000Y-73000000D03*
X159000000Y-74400000D03*
G36*
G01*
X157490000Y-66670000D02*
X157490000Y-66330000D01*
G75*
G02*
X157630000Y-66190000I140000J0D01*
G01*
X157910000Y-66190000D01*
G75*
G02*
X158050000Y-66330000I0J-140000D01*
G01*
X158050000Y-66670000D01*
G75*
G02*
X157910000Y-66810000I-140000J0D01*
G01*
X157630000Y-66810000D01*
G75*
G02*
X157490000Y-66670000I0J140000D01*
G01*
G37*
G36*
G01*
X158450000Y-66670000D02*
X158450000Y-66330000D01*
G75*
G02*
X158590000Y-66190000I140000J0D01*
G01*
X158870000Y-66190000D01*
G75*
G02*
X159010000Y-66330000I0J-140000D01*
G01*
X159010000Y-66670000D01*
G75*
G02*
X158870000Y-66810000I-140000J0D01*
G01*
X158590000Y-66810000D01*
G75*
G02*
X158450000Y-66670000I0J140000D01*
G01*
G37*
G36*
G01*
X165185000Y-131290000D02*
X164815000Y-131290000D01*
G75*
G02*
X164680000Y-131155000I0J135000D01*
G01*
X164680000Y-130885000D01*
G75*
G02*
X164815000Y-130750000I135000J0D01*
G01*
X165185000Y-130750000D01*
G75*
G02*
X165320000Y-130885000I0J-135000D01*
G01*
X165320000Y-131155000D01*
G75*
G02*
X165185000Y-131290000I-135000J0D01*
G01*
G37*
G36*
G01*
X165185000Y-130270000D02*
X164815000Y-130270000D01*
G75*
G02*
X164680000Y-130135000I0J135000D01*
G01*
X164680000Y-129865000D01*
G75*
G02*
X164815000Y-129730000I135000J0D01*
G01*
X165185000Y-129730000D01*
G75*
G02*
X165320000Y-129865000I0J-135000D01*
G01*
X165320000Y-130135000D01*
G75*
G02*
X165185000Y-130270000I-135000J0D01*
G01*
G37*
G36*
G01*
X161780000Y-124815000D02*
X161780000Y-125185000D01*
G75*
G02*
X161645000Y-125320000I-135000J0D01*
G01*
X161375000Y-125320000D01*
G75*
G02*
X161240000Y-125185000I0J135000D01*
G01*
X161240000Y-124815000D01*
G75*
G02*
X161375000Y-124680000I135000J0D01*
G01*
X161645000Y-124680000D01*
G75*
G02*
X161780000Y-124815000I0J-135000D01*
G01*
G37*
G36*
G01*
X160760000Y-124815000D02*
X160760000Y-125185000D01*
G75*
G02*
X160625000Y-125320000I-135000J0D01*
G01*
X160355000Y-125320000D01*
G75*
G02*
X160220000Y-125185000I0J135000D01*
G01*
X160220000Y-124815000D01*
G75*
G02*
X160355000Y-124680000I135000J0D01*
G01*
X160625000Y-124680000D01*
G75*
G02*
X160760000Y-124815000I0J-135000D01*
G01*
G37*
G36*
G01*
X140495000Y-107565000D02*
X140155000Y-107565000D01*
G75*
G02*
X140015000Y-107425000I0J140000D01*
G01*
X140015000Y-107145000D01*
G75*
G02*
X140155000Y-107005000I140000J0D01*
G01*
X140495000Y-107005000D01*
G75*
G02*
X140635000Y-107145000I0J-140000D01*
G01*
X140635000Y-107425000D01*
G75*
G02*
X140495000Y-107565000I-140000J0D01*
G01*
G37*
G36*
G01*
X140495000Y-106605000D02*
X140155000Y-106605000D01*
G75*
G02*
X140015000Y-106465000I0J140000D01*
G01*
X140015000Y-106185000D01*
G75*
G02*
X140155000Y-106045000I140000J0D01*
G01*
X140495000Y-106045000D01*
G75*
G02*
X140635000Y-106185000I0J-140000D01*
G01*
X140635000Y-106465000D01*
G75*
G02*
X140495000Y-106605000I-140000J0D01*
G01*
G37*
G36*
G01*
X131640000Y-91055000D02*
X132010000Y-91055000D01*
G75*
G02*
X132145000Y-91190000I0J-135000D01*
G01*
X132145000Y-91460000D01*
G75*
G02*
X132010000Y-91595000I-135000J0D01*
G01*
X131640000Y-91595000D01*
G75*
G02*
X131505000Y-91460000I0J135000D01*
G01*
X131505000Y-91190000D01*
G75*
G02*
X131640000Y-91055000I135000J0D01*
G01*
G37*
G36*
G01*
X131640000Y-92075000D02*
X132010000Y-92075000D01*
G75*
G02*
X132145000Y-92210000I0J-135000D01*
G01*
X132145000Y-92480000D01*
G75*
G02*
X132010000Y-92615000I-135000J0D01*
G01*
X131640000Y-92615000D01*
G75*
G02*
X131505000Y-92480000I0J135000D01*
G01*
X131505000Y-92210000D01*
G75*
G02*
X131640000Y-92075000I135000J0D01*
G01*
G37*
X159000000Y-130000000D03*
X159000000Y-131400000D03*
G36*
G01*
X140495000Y-127585000D02*
X140155000Y-127585000D01*
G75*
G02*
X140015000Y-127445000I0J140000D01*
G01*
X140015000Y-127165000D01*
G75*
G02*
X140155000Y-127025000I140000J0D01*
G01*
X140495000Y-127025000D01*
G75*
G02*
X140635000Y-127165000I0J-140000D01*
G01*
X140635000Y-127445000D01*
G75*
G02*
X140495000Y-127585000I-140000J0D01*
G01*
G37*
G36*
G01*
X140495000Y-126625000D02*
X140155000Y-126625000D01*
G75*
G02*
X140015000Y-126485000I0J140000D01*
G01*
X140015000Y-126205000D01*
G75*
G02*
X140155000Y-126065000I140000J0D01*
G01*
X140495000Y-126065000D01*
G75*
G02*
X140635000Y-126205000I0J-140000D01*
G01*
X140635000Y-126485000D01*
G75*
G02*
X140495000Y-126625000I-140000J0D01*
G01*
G37*
G36*
G01*
X73780000Y-133315000D02*
X73780000Y-133685000D01*
G75*
G02*
X73645000Y-133820000I-135000J0D01*
G01*
X73375000Y-133820000D01*
G75*
G02*
X73240000Y-133685000I0J135000D01*
G01*
X73240000Y-133315000D01*
G75*
G02*
X73375000Y-133180000I135000J0D01*
G01*
X73645000Y-133180000D01*
G75*
G02*
X73780000Y-133315000I0J-135000D01*
G01*
G37*
G36*
G01*
X72760000Y-133315000D02*
X72760000Y-133685000D01*
G75*
G02*
X72625000Y-133820000I-135000J0D01*
G01*
X72355000Y-133820000D01*
G75*
G02*
X72220000Y-133685000I0J135000D01*
G01*
X72220000Y-133315000D01*
G75*
G02*
X72355000Y-133180000I135000J0D01*
G01*
X72625000Y-133180000D01*
G75*
G02*
X72760000Y-133315000I0J-135000D01*
G01*
G37*
G36*
G01*
X164290000Y-84815000D02*
X164290000Y-85185000D01*
G75*
G02*
X164155000Y-85320000I-135000J0D01*
G01*
X163885000Y-85320000D01*
G75*
G02*
X163750000Y-85185000I0J135000D01*
G01*
X163750000Y-84815000D01*
G75*
G02*
X163885000Y-84680000I135000J0D01*
G01*
X164155000Y-84680000D01*
G75*
G02*
X164290000Y-84815000I0J-135000D01*
G01*
G37*
G36*
G01*
X163270000Y-84815000D02*
X163270000Y-85185000D01*
G75*
G02*
X163135000Y-85320000I-135000J0D01*
G01*
X162865000Y-85320000D01*
G75*
G02*
X162730000Y-85185000I0J135000D01*
G01*
X162730000Y-84815000D01*
G75*
G02*
X162865000Y-84680000I135000J0D01*
G01*
X163135000Y-84680000D01*
G75*
G02*
X163270000Y-84815000I0J-135000D01*
G01*
G37*
G36*
G01*
X157490000Y-86670000D02*
X157490000Y-86330000D01*
G75*
G02*
X157630000Y-86190000I140000J0D01*
G01*
X157910000Y-86190000D01*
G75*
G02*
X158050000Y-86330000I0J-140000D01*
G01*
X158050000Y-86670000D01*
G75*
G02*
X157910000Y-86810000I-140000J0D01*
G01*
X157630000Y-86810000D01*
G75*
G02*
X157490000Y-86670000I0J140000D01*
G01*
G37*
G36*
G01*
X158450000Y-86670000D02*
X158450000Y-86330000D01*
G75*
G02*
X158590000Y-86190000I140000J0D01*
G01*
X158870000Y-86190000D01*
G75*
G02*
X159010000Y-86330000I0J-140000D01*
G01*
X159010000Y-86670000D01*
G75*
G02*
X158870000Y-86810000I-140000J0D01*
G01*
X158590000Y-86810000D01*
G75*
G02*
X158450000Y-86670000I0J140000D01*
G01*
G37*
G36*
G01*
X97780000Y-113315000D02*
X97780000Y-113685000D01*
G75*
G02*
X97645000Y-113820000I-135000J0D01*
G01*
X97375000Y-113820000D01*
G75*
G02*
X97240000Y-113685000I0J135000D01*
G01*
X97240000Y-113315000D01*
G75*
G02*
X97375000Y-113180000I135000J0D01*
G01*
X97645000Y-113180000D01*
G75*
G02*
X97780000Y-113315000I0J-135000D01*
G01*
G37*
G36*
G01*
X96760000Y-113315000D02*
X96760000Y-113685000D01*
G75*
G02*
X96625000Y-113820000I-135000J0D01*
G01*
X96355000Y-113820000D01*
G75*
G02*
X96220000Y-113685000I0J135000D01*
G01*
X96220000Y-113315000D01*
G75*
G02*
X96355000Y-113180000I135000J0D01*
G01*
X96625000Y-113180000D01*
G75*
G02*
X96760000Y-113315000I0J-135000D01*
G01*
G37*
G36*
G01*
X71700000Y-118175000D02*
X71400000Y-118175000D01*
G75*
G02*
X71250000Y-118025000I0J150000D01*
G01*
X71250000Y-116850000D01*
G75*
G02*
X71400000Y-116700000I150000J0D01*
G01*
X71700000Y-116700000D01*
G75*
G02*
X71850000Y-116850000I0J-150000D01*
G01*
X71850000Y-118025000D01*
G75*
G02*
X71700000Y-118175000I-150000J0D01*
G01*
G37*
G36*
G01*
X73600000Y-118175000D02*
X73300000Y-118175000D01*
G75*
G02*
X73150000Y-118025000I0J150000D01*
G01*
X73150000Y-116850000D01*
G75*
G02*
X73300000Y-116700000I150000J0D01*
G01*
X73600000Y-116700000D01*
G75*
G02*
X73750000Y-116850000I0J-150000D01*
G01*
X73750000Y-118025000D01*
G75*
G02*
X73600000Y-118175000I-150000J0D01*
G01*
G37*
G36*
G01*
X72650000Y-116300000D02*
X72350000Y-116300000D01*
G75*
G02*
X72200000Y-116150000I0J150000D01*
G01*
X72200000Y-114975000D01*
G75*
G02*
X72350000Y-114825000I150000J0D01*
G01*
X72650000Y-114825000D01*
G75*
G02*
X72800000Y-114975000I0J-150000D01*
G01*
X72800000Y-116150000D01*
G75*
G02*
X72650000Y-116300000I-150000J0D01*
G01*
G37*
D13*
X161850000Y-68450000D03*
X162500000Y-68450000D03*
X163150000Y-68450000D03*
X163150000Y-66550000D03*
X161850000Y-66550000D03*
D10*
X175000000Y-145000000D03*
G36*
G01*
X137575000Y-129995000D02*
X137575000Y-129655000D01*
G75*
G02*
X137715000Y-129515000I140000J0D01*
G01*
X137995000Y-129515000D01*
G75*
G02*
X138135000Y-129655000I0J-140000D01*
G01*
X138135000Y-129995000D01*
G75*
G02*
X137995000Y-130135000I-140000J0D01*
G01*
X137715000Y-130135000D01*
G75*
G02*
X137575000Y-129995000I0J140000D01*
G01*
G37*
G36*
G01*
X138535000Y-129995000D02*
X138535000Y-129655000D01*
G75*
G02*
X138675000Y-129515000I140000J0D01*
G01*
X138955000Y-129515000D01*
G75*
G02*
X139095000Y-129655000I0J-140000D01*
G01*
X139095000Y-129995000D01*
G75*
G02*
X138955000Y-130135000I-140000J0D01*
G01*
X138675000Y-130135000D01*
G75*
G02*
X138535000Y-129995000I0J140000D01*
G01*
G37*
G36*
G01*
X71700000Y-98175000D02*
X71400000Y-98175000D01*
G75*
G02*
X71250000Y-98025000I0J150000D01*
G01*
X71250000Y-96850000D01*
G75*
G02*
X71400000Y-96700000I150000J0D01*
G01*
X71700000Y-96700000D01*
G75*
G02*
X71850000Y-96850000I0J-150000D01*
G01*
X71850000Y-98025000D01*
G75*
G02*
X71700000Y-98175000I-150000J0D01*
G01*
G37*
G36*
G01*
X73600000Y-98175000D02*
X73300000Y-98175000D01*
G75*
G02*
X73150000Y-98025000I0J150000D01*
G01*
X73150000Y-96850000D01*
G75*
G02*
X73300000Y-96700000I150000J0D01*
G01*
X73600000Y-96700000D01*
G75*
G02*
X73750000Y-96850000I0J-150000D01*
G01*
X73750000Y-98025000D01*
G75*
G02*
X73600000Y-98175000I-150000J0D01*
G01*
G37*
G36*
G01*
X72650000Y-96300000D02*
X72350000Y-96300000D01*
G75*
G02*
X72200000Y-96150000I0J150000D01*
G01*
X72200000Y-94975000D01*
G75*
G02*
X72350000Y-94825000I150000J0D01*
G01*
X72650000Y-94825000D01*
G75*
G02*
X72800000Y-94975000I0J-150000D01*
G01*
X72800000Y-96150000D01*
G75*
G02*
X72650000Y-96300000I-150000J0D01*
G01*
G37*
G36*
G01*
X156220000Y-130185000D02*
X156220000Y-129815000D01*
G75*
G02*
X156355000Y-129680000I135000J0D01*
G01*
X156625000Y-129680000D01*
G75*
G02*
X156760000Y-129815000I0J-135000D01*
G01*
X156760000Y-130185000D01*
G75*
G02*
X156625000Y-130320000I-135000J0D01*
G01*
X156355000Y-130320000D01*
G75*
G02*
X156220000Y-130185000I0J135000D01*
G01*
G37*
G36*
G01*
X157240000Y-130185000D02*
X157240000Y-129815000D01*
G75*
G02*
X157375000Y-129680000I135000J0D01*
G01*
X157645000Y-129680000D01*
G75*
G02*
X157780000Y-129815000I0J-135000D01*
G01*
X157780000Y-130185000D01*
G75*
G02*
X157645000Y-130320000I-135000J0D01*
G01*
X157375000Y-130320000D01*
G75*
G02*
X157240000Y-130185000I0J135000D01*
G01*
G37*
D11*
X134325000Y-92825000D03*
X134325000Y-94225000D03*
D10*
X120000000Y-145000000D03*
G36*
G01*
X75700000Y-118175000D02*
X75400000Y-118175000D01*
G75*
G02*
X75250000Y-118025000I0J150000D01*
G01*
X75250000Y-116850000D01*
G75*
G02*
X75400000Y-116700000I150000J0D01*
G01*
X75700000Y-116700000D01*
G75*
G02*
X75850000Y-116850000I0J-150000D01*
G01*
X75850000Y-118025000D01*
G75*
G02*
X75700000Y-118175000I-150000J0D01*
G01*
G37*
G36*
G01*
X77600000Y-118175000D02*
X77300000Y-118175000D01*
G75*
G02*
X77150000Y-118025000I0J150000D01*
G01*
X77150000Y-116850000D01*
G75*
G02*
X77300000Y-116700000I150000J0D01*
G01*
X77600000Y-116700000D01*
G75*
G02*
X77750000Y-116850000I0J-150000D01*
G01*
X77750000Y-118025000D01*
G75*
G02*
X77600000Y-118175000I-150000J0D01*
G01*
G37*
G36*
G01*
X76650000Y-116300000D02*
X76350000Y-116300000D01*
G75*
G02*
X76200000Y-116150000I0J150000D01*
G01*
X76200000Y-114975000D01*
G75*
G02*
X76350000Y-114825000I150000J0D01*
G01*
X76650000Y-114825000D01*
G75*
G02*
X76800000Y-114975000I0J-150000D01*
G01*
X76800000Y-116150000D01*
G75*
G02*
X76650000Y-116300000I-150000J0D01*
G01*
G37*
G36*
G01*
X93000000Y-91750000D02*
X93000000Y-88250000D01*
G75*
G02*
X93250000Y-88000000I250000J0D01*
G01*
X96750000Y-88000000D01*
G75*
G02*
X97000000Y-88250000I0J-250000D01*
G01*
X97000000Y-91750000D01*
G75*
G02*
X96750000Y-92000000I-250000J0D01*
G01*
X93250000Y-92000000D01*
G75*
G02*
X93000000Y-91750000I0J250000D01*
G01*
G37*
D12*
X102200000Y-90000000D03*
D11*
X161000000Y-91400000D03*
X161000000Y-90000000D03*
G36*
G01*
X162220000Y-110170000D02*
X162220000Y-109830000D01*
G75*
G02*
X162360000Y-109690000I140000J0D01*
G01*
X162640000Y-109690000D01*
G75*
G02*
X162780000Y-109830000I0J-140000D01*
G01*
X162780000Y-110170000D01*
G75*
G02*
X162640000Y-110310000I-140000J0D01*
G01*
X162360000Y-110310000D01*
G75*
G02*
X162220000Y-110170000I0J140000D01*
G01*
G37*
G36*
G01*
X163180000Y-110170000D02*
X163180000Y-109830000D01*
G75*
G02*
X163320000Y-109690000I140000J0D01*
G01*
X163600000Y-109690000D01*
G75*
G02*
X163740000Y-109830000I0J-140000D01*
G01*
X163740000Y-110170000D01*
G75*
G02*
X163600000Y-110310000I-140000J0D01*
G01*
X163320000Y-110310000D01*
G75*
G02*
X163180000Y-110170000I0J140000D01*
G01*
G37*
D14*
X125000000Y-90000000D03*
D15*
X128175000Y-86825000D03*
X121825000Y-93175000D03*
X128175000Y-93175000D03*
X121825000Y-86825000D03*
G36*
G01*
X75700000Y-138175000D02*
X75400000Y-138175000D01*
G75*
G02*
X75250000Y-138025000I0J150000D01*
G01*
X75250000Y-136850000D01*
G75*
G02*
X75400000Y-136700000I150000J0D01*
G01*
X75700000Y-136700000D01*
G75*
G02*
X75850000Y-136850000I0J-150000D01*
G01*
X75850000Y-138025000D01*
G75*
G02*
X75700000Y-138175000I-150000J0D01*
G01*
G37*
G36*
G01*
X77600000Y-138175000D02*
X77300000Y-138175000D01*
G75*
G02*
X77150000Y-138025000I0J150000D01*
G01*
X77150000Y-136850000D01*
G75*
G02*
X77300000Y-136700000I150000J0D01*
G01*
X77600000Y-136700000D01*
G75*
G02*
X77750000Y-136850000I0J-150000D01*
G01*
X77750000Y-138025000D01*
G75*
G02*
X77600000Y-138175000I-150000J0D01*
G01*
G37*
G36*
G01*
X76650000Y-136300000D02*
X76350000Y-136300000D01*
G75*
G02*
X76200000Y-136150000I0J150000D01*
G01*
X76200000Y-134975000D01*
G75*
G02*
X76350000Y-134825000I150000J0D01*
G01*
X76650000Y-134825000D01*
G75*
G02*
X76800000Y-134975000I0J-150000D01*
G01*
X76800000Y-136150000D01*
G75*
G02*
X76650000Y-136300000I-150000J0D01*
G01*
G37*
G36*
G01*
X93780000Y-73315000D02*
X93780000Y-73685000D01*
G75*
G02*
X93645000Y-73820000I-135000J0D01*
G01*
X93375000Y-73820000D01*
G75*
G02*
X93240000Y-73685000I0J135000D01*
G01*
X93240000Y-73315000D01*
G75*
G02*
X93375000Y-73180000I135000J0D01*
G01*
X93645000Y-73180000D01*
G75*
G02*
X93780000Y-73315000I0J-135000D01*
G01*
G37*
G36*
G01*
X92760000Y-73315000D02*
X92760000Y-73685000D01*
G75*
G02*
X92625000Y-73820000I-135000J0D01*
G01*
X92355000Y-73820000D01*
G75*
G02*
X92220000Y-73685000I0J135000D01*
G01*
X92220000Y-73315000D01*
G75*
G02*
X92355000Y-73180000I135000J0D01*
G01*
X92625000Y-73180000D01*
G75*
G02*
X92760000Y-73315000I0J-135000D01*
G01*
G37*
D13*
X161850000Y-88450000D03*
X162500000Y-88450000D03*
X163150000Y-88450000D03*
X163150000Y-86550000D03*
X161850000Y-86550000D03*
G36*
G01*
X95700000Y-98175000D02*
X95400000Y-98175000D01*
G75*
G02*
X95250000Y-98025000I0J150000D01*
G01*
X95250000Y-96850000D01*
G75*
G02*
X95400000Y-96700000I150000J0D01*
G01*
X95700000Y-96700000D01*
G75*
G02*
X95850000Y-96850000I0J-150000D01*
G01*
X95850000Y-98025000D01*
G75*
G02*
X95700000Y-98175000I-150000J0D01*
G01*
G37*
G36*
G01*
X97600000Y-98175000D02*
X97300000Y-98175000D01*
G75*
G02*
X97150000Y-98025000I0J150000D01*
G01*
X97150000Y-96850000D01*
G75*
G02*
X97300000Y-96700000I150000J0D01*
G01*
X97600000Y-96700000D01*
G75*
G02*
X97750000Y-96850000I0J-150000D01*
G01*
X97750000Y-98025000D01*
G75*
G02*
X97600000Y-98175000I-150000J0D01*
G01*
G37*
G36*
G01*
X96650000Y-96300000D02*
X96350000Y-96300000D01*
G75*
G02*
X96200000Y-96150000I0J150000D01*
G01*
X96200000Y-94975000D01*
G75*
G02*
X96350000Y-94825000I150000J0D01*
G01*
X96650000Y-94825000D01*
G75*
G02*
X96800000Y-94975000I0J-150000D01*
G01*
X96800000Y-96150000D01*
G75*
G02*
X96650000Y-96300000I-150000J0D01*
G01*
G37*
G36*
G01*
X161780000Y-64815000D02*
X161780000Y-65185000D01*
G75*
G02*
X161645000Y-65320000I-135000J0D01*
G01*
X161375000Y-65320000D01*
G75*
G02*
X161240000Y-65185000I0J135000D01*
G01*
X161240000Y-64815000D01*
G75*
G02*
X161375000Y-64680000I135000J0D01*
G01*
X161645000Y-64680000D01*
G75*
G02*
X161780000Y-64815000I0J-135000D01*
G01*
G37*
G36*
G01*
X160760000Y-64815000D02*
X160760000Y-65185000D01*
G75*
G02*
X160625000Y-65320000I-135000J0D01*
G01*
X160355000Y-65320000D01*
G75*
G02*
X160220000Y-65185000I0J135000D01*
G01*
X160220000Y-64815000D01*
G75*
G02*
X160355000Y-64680000I135000J0D01*
G01*
X160625000Y-64680000D01*
G75*
G02*
X160760000Y-64815000I0J-135000D01*
G01*
G37*
G36*
G01*
X135510000Y-87605000D02*
X135140000Y-87605000D01*
G75*
G02*
X135005000Y-87470000I0J135000D01*
G01*
X135005000Y-87200000D01*
G75*
G02*
X135140000Y-87065000I135000J0D01*
G01*
X135510000Y-87065000D01*
G75*
G02*
X135645000Y-87200000I0J-135000D01*
G01*
X135645000Y-87470000D01*
G75*
G02*
X135510000Y-87605000I-135000J0D01*
G01*
G37*
G36*
G01*
X135510000Y-86585000D02*
X135140000Y-86585000D01*
G75*
G02*
X135005000Y-86450000I0J135000D01*
G01*
X135005000Y-86180000D01*
G75*
G02*
X135140000Y-86045000I135000J0D01*
G01*
X135510000Y-86045000D01*
G75*
G02*
X135645000Y-86180000I0J-135000D01*
G01*
X135645000Y-86450000D01*
G75*
G02*
X135510000Y-86585000I-135000J0D01*
G01*
G37*
G36*
G01*
X133315000Y-124995000D02*
X133315000Y-124655000D01*
G75*
G02*
X133455000Y-124515000I140000J0D01*
G01*
X133735000Y-124515000D01*
G75*
G02*
X133875000Y-124655000I0J-140000D01*
G01*
X133875000Y-124995000D01*
G75*
G02*
X133735000Y-125135000I-140000J0D01*
G01*
X133455000Y-125135000D01*
G75*
G02*
X133315000Y-124995000I0J140000D01*
G01*
G37*
G36*
G01*
X134275000Y-124995000D02*
X134275000Y-124655000D01*
G75*
G02*
X134415000Y-124515000I140000J0D01*
G01*
X134695000Y-124515000D01*
G75*
G02*
X134835000Y-124655000I0J-140000D01*
G01*
X134835000Y-124995000D01*
G75*
G02*
X134695000Y-125135000I-140000J0D01*
G01*
X134415000Y-125135000D01*
G75*
G02*
X134275000Y-124995000I0J140000D01*
G01*
G37*
X137175000Y-88275000D03*
X137825000Y-88275000D03*
X138475000Y-88275000D03*
X138475000Y-86375000D03*
X137175000Y-86375000D03*
G36*
G01*
X75700000Y-78175000D02*
X75400000Y-78175000D01*
G75*
G02*
X75250000Y-78025000I0J150000D01*
G01*
X75250000Y-76850000D01*
G75*
G02*
X75400000Y-76700000I150000J0D01*
G01*
X75700000Y-76700000D01*
G75*
G02*
X75850000Y-76850000I0J-150000D01*
G01*
X75850000Y-78025000D01*
G75*
G02*
X75700000Y-78175000I-150000J0D01*
G01*
G37*
G36*
G01*
X77600000Y-78175000D02*
X77300000Y-78175000D01*
G75*
G02*
X77150000Y-78025000I0J150000D01*
G01*
X77150000Y-76850000D01*
G75*
G02*
X77300000Y-76700000I150000J0D01*
G01*
X77600000Y-76700000D01*
G75*
G02*
X77750000Y-76850000I0J-150000D01*
G01*
X77750000Y-78025000D01*
G75*
G02*
X77600000Y-78175000I-150000J0D01*
G01*
G37*
G36*
G01*
X76650000Y-76300000D02*
X76350000Y-76300000D01*
G75*
G02*
X76200000Y-76150000I0J150000D01*
G01*
X76200000Y-74975000D01*
G75*
G02*
X76350000Y-74825000I150000J0D01*
G01*
X76650000Y-74825000D01*
G75*
G02*
X76800000Y-74975000I0J-150000D01*
G01*
X76800000Y-76150000D01*
G75*
G02*
X76650000Y-76300000I-150000J0D01*
G01*
G37*
G36*
G01*
X92790000Y-139315000D02*
X92790000Y-139685000D01*
G75*
G02*
X92655000Y-139820000I-135000J0D01*
G01*
X92385000Y-139820000D01*
G75*
G02*
X92250000Y-139685000I0J135000D01*
G01*
X92250000Y-139315000D01*
G75*
G02*
X92385000Y-139180000I135000J0D01*
G01*
X92655000Y-139180000D01*
G75*
G02*
X92790000Y-139315000I0J-135000D01*
G01*
G37*
G36*
G01*
X91770000Y-139315000D02*
X91770000Y-139685000D01*
G75*
G02*
X91635000Y-139820000I-135000J0D01*
G01*
X91365000Y-139820000D01*
G75*
G02*
X91230000Y-139685000I0J135000D01*
G01*
X91230000Y-139315000D01*
G75*
G02*
X91365000Y-139180000I135000J0D01*
G01*
X91635000Y-139180000D01*
G75*
G02*
X91770000Y-139315000I0J-135000D01*
G01*
G37*
D11*
X136335000Y-114225000D03*
X136335000Y-112825000D03*
G36*
G01*
X137545000Y-89995000D02*
X137545000Y-89655000D01*
G75*
G02*
X137685000Y-89515000I140000J0D01*
G01*
X137965000Y-89515000D01*
G75*
G02*
X138105000Y-89655000I0J-140000D01*
G01*
X138105000Y-89995000D01*
G75*
G02*
X137965000Y-90135000I-140000J0D01*
G01*
X137685000Y-90135000D01*
G75*
G02*
X137545000Y-89995000I0J140000D01*
G01*
G37*
G36*
G01*
X138505000Y-89995000D02*
X138505000Y-89655000D01*
G75*
G02*
X138645000Y-89515000I140000J0D01*
G01*
X138925000Y-89515000D01*
G75*
G02*
X139065000Y-89655000I0J-140000D01*
G01*
X139065000Y-89995000D01*
G75*
G02*
X138925000Y-90135000I-140000J0D01*
G01*
X138645000Y-90135000D01*
G75*
G02*
X138505000Y-89995000I0J140000D01*
G01*
G37*
D14*
X125000000Y-110000000D03*
D15*
X128175000Y-113175000D03*
X128175000Y-106825000D03*
X121825000Y-113175000D03*
X121825000Y-106825000D03*
G36*
G01*
X131555000Y-70010000D02*
X131555000Y-69640000D01*
G75*
G02*
X131690000Y-69505000I135000J0D01*
G01*
X131960000Y-69505000D01*
G75*
G02*
X132095000Y-69640000I0J-135000D01*
G01*
X132095000Y-70010000D01*
G75*
G02*
X131960000Y-70145000I-135000J0D01*
G01*
X131690000Y-70145000D01*
G75*
G02*
X131555000Y-70010000I0J135000D01*
G01*
G37*
G36*
G01*
X132575000Y-70010000D02*
X132575000Y-69640000D01*
G75*
G02*
X132710000Y-69505000I135000J0D01*
G01*
X132980000Y-69505000D01*
G75*
G02*
X133115000Y-69640000I0J-135000D01*
G01*
X133115000Y-70010000D01*
G75*
G02*
X132980000Y-70145000I-135000J0D01*
G01*
X132710000Y-70145000D01*
G75*
G02*
X132575000Y-70010000I0J135000D01*
G01*
G37*
G36*
G01*
X139615000Y-64640000D02*
X139615000Y-65010000D01*
G75*
G02*
X139480000Y-65145000I-135000J0D01*
G01*
X139210000Y-65145000D01*
G75*
G02*
X139075000Y-65010000I0J135000D01*
G01*
X139075000Y-64640000D01*
G75*
G02*
X139210000Y-64505000I135000J0D01*
G01*
X139480000Y-64505000D01*
G75*
G02*
X139615000Y-64640000I0J-135000D01*
G01*
G37*
G36*
G01*
X138595000Y-64640000D02*
X138595000Y-65010000D01*
G75*
G02*
X138460000Y-65145000I-135000J0D01*
G01*
X138190000Y-65145000D01*
G75*
G02*
X138055000Y-65010000I0J135000D01*
G01*
X138055000Y-64640000D01*
G75*
G02*
X138190000Y-64505000I135000J0D01*
G01*
X138460000Y-64505000D01*
G75*
G02*
X138595000Y-64640000I0J-135000D01*
G01*
G37*
D14*
X150000000Y-70000000D03*
D15*
X153175000Y-73175000D03*
X146825000Y-73175000D03*
X146825000Y-66825000D03*
X153175000Y-66825000D03*
G36*
G01*
X132815000Y-126495000D02*
X132815000Y-126155000D01*
G75*
G02*
X132955000Y-126015000I140000J0D01*
G01*
X133235000Y-126015000D01*
G75*
G02*
X133375000Y-126155000I0J-140000D01*
G01*
X133375000Y-126495000D01*
G75*
G02*
X133235000Y-126635000I-140000J0D01*
G01*
X132955000Y-126635000D01*
G75*
G02*
X132815000Y-126495000I0J140000D01*
G01*
G37*
G36*
G01*
X133775000Y-126495000D02*
X133775000Y-126155000D01*
G75*
G02*
X133915000Y-126015000I140000J0D01*
G01*
X134195000Y-126015000D01*
G75*
G02*
X134335000Y-126155000I0J-140000D01*
G01*
X134335000Y-126495000D01*
G75*
G02*
X134195000Y-126635000I-140000J0D01*
G01*
X133915000Y-126635000D01*
G75*
G02*
X133775000Y-126495000I0J140000D01*
G01*
G37*
D14*
X150000000Y-110000000D03*
D15*
X146825000Y-113175000D03*
X153175000Y-113175000D03*
X153175000Y-106825000D03*
X146825000Y-106825000D03*
D11*
X136325000Y-74225000D03*
X136325000Y-72825000D03*
D10*
X120000000Y-55000000D03*
G36*
G01*
X165185000Y-91290000D02*
X164815000Y-91290000D01*
G75*
G02*
X164680000Y-91155000I0J135000D01*
G01*
X164680000Y-90885000D01*
G75*
G02*
X164815000Y-90750000I135000J0D01*
G01*
X165185000Y-90750000D01*
G75*
G02*
X165320000Y-90885000I0J-135000D01*
G01*
X165320000Y-91155000D01*
G75*
G02*
X165185000Y-91290000I-135000J0D01*
G01*
G37*
G36*
G01*
X165185000Y-90270000D02*
X164815000Y-90270000D01*
G75*
G02*
X164680000Y-90135000I0J135000D01*
G01*
X164680000Y-89865000D01*
G75*
G02*
X164815000Y-89730000I135000J0D01*
G01*
X165185000Y-89730000D01*
G75*
G02*
X165320000Y-89865000I0J-135000D01*
G01*
X165320000Y-90135000D01*
G75*
G02*
X165185000Y-90270000I-135000J0D01*
G01*
G37*
G36*
G01*
X133315000Y-64995000D02*
X133315000Y-64655000D01*
G75*
G02*
X133455000Y-64515000I140000J0D01*
G01*
X133735000Y-64515000D01*
G75*
G02*
X133875000Y-64655000I0J-140000D01*
G01*
X133875000Y-64995000D01*
G75*
G02*
X133735000Y-65135000I-140000J0D01*
G01*
X133455000Y-65135000D01*
G75*
G02*
X133315000Y-64995000I0J140000D01*
G01*
G37*
G36*
G01*
X134275000Y-64995000D02*
X134275000Y-64655000D01*
G75*
G02*
X134415000Y-64515000I140000J0D01*
G01*
X134695000Y-64515000D01*
G75*
G02*
X134835000Y-64655000I0J-140000D01*
G01*
X134835000Y-64995000D01*
G75*
G02*
X134695000Y-65135000I-140000J0D01*
G01*
X134415000Y-65135000D01*
G75*
G02*
X134275000Y-64995000I0J140000D01*
G01*
G37*
D13*
X161850000Y-108450000D03*
X162500000Y-108450000D03*
X163150000Y-108450000D03*
X163150000Y-106550000D03*
X161850000Y-106550000D03*
D11*
X159000000Y-113000000D03*
X159000000Y-114400000D03*
X159000000Y-70000000D03*
X159000000Y-71400000D03*
G36*
G01*
X165185000Y-71290000D02*
X164815000Y-71290000D01*
G75*
G02*
X164680000Y-71155000I0J135000D01*
G01*
X164680000Y-70885000D01*
G75*
G02*
X164815000Y-70750000I135000J0D01*
G01*
X165185000Y-70750000D01*
G75*
G02*
X165320000Y-70885000I0J-135000D01*
G01*
X165320000Y-71155000D01*
G75*
G02*
X165185000Y-71290000I-135000J0D01*
G01*
G37*
G36*
G01*
X165185000Y-70270000D02*
X164815000Y-70270000D01*
G75*
G02*
X164680000Y-70135000I0J135000D01*
G01*
X164680000Y-69865000D01*
G75*
G02*
X164815000Y-69730000I135000J0D01*
G01*
X165185000Y-69730000D01*
G75*
G02*
X165320000Y-69865000I0J-135000D01*
G01*
X165320000Y-70135000D01*
G75*
G02*
X165185000Y-70270000I-135000J0D01*
G01*
G37*
D13*
X137175000Y-68275000D03*
X137825000Y-68275000D03*
X138475000Y-68275000D03*
X138475000Y-66375000D03*
X137175000Y-66375000D03*
G36*
G01*
X157490000Y-126670000D02*
X157490000Y-126330000D01*
G75*
G02*
X157630000Y-126190000I140000J0D01*
G01*
X157910000Y-126190000D01*
G75*
G02*
X158050000Y-126330000I0J-140000D01*
G01*
X158050000Y-126670000D01*
G75*
G02*
X157910000Y-126810000I-140000J0D01*
G01*
X157630000Y-126810000D01*
G75*
G02*
X157490000Y-126670000I0J140000D01*
G01*
G37*
G36*
G01*
X158450000Y-126670000D02*
X158450000Y-126330000D01*
G75*
G02*
X158590000Y-126190000I140000J0D01*
G01*
X158870000Y-126190000D01*
G75*
G02*
X159010000Y-126330000I0J-140000D01*
G01*
X159010000Y-126670000D01*
G75*
G02*
X158870000Y-126810000I-140000J0D01*
G01*
X158590000Y-126810000D01*
G75*
G02*
X158450000Y-126670000I0J140000D01*
G01*
G37*
G36*
G01*
X157990000Y-65170000D02*
X157990000Y-64830000D01*
G75*
G02*
X158130000Y-64690000I140000J0D01*
G01*
X158410000Y-64690000D01*
G75*
G02*
X158550000Y-64830000I0J-140000D01*
G01*
X158550000Y-65170000D01*
G75*
G02*
X158410000Y-65310000I-140000J0D01*
G01*
X158130000Y-65310000D01*
G75*
G02*
X157990000Y-65170000I0J140000D01*
G01*
G37*
G36*
G01*
X158950000Y-65170000D02*
X158950000Y-64830000D01*
G75*
G02*
X159090000Y-64690000I140000J0D01*
G01*
X159370000Y-64690000D01*
G75*
G02*
X159510000Y-64830000I0J-140000D01*
G01*
X159510000Y-65170000D01*
G75*
G02*
X159370000Y-65310000I-140000J0D01*
G01*
X159090000Y-65310000D01*
G75*
G02*
X158950000Y-65170000I0J140000D01*
G01*
G37*
G36*
G01*
X95700000Y-118175000D02*
X95400000Y-118175000D01*
G75*
G02*
X95250000Y-118025000I0J150000D01*
G01*
X95250000Y-116850000D01*
G75*
G02*
X95400000Y-116700000I150000J0D01*
G01*
X95700000Y-116700000D01*
G75*
G02*
X95850000Y-116850000I0J-150000D01*
G01*
X95850000Y-118025000D01*
G75*
G02*
X95700000Y-118175000I-150000J0D01*
G01*
G37*
G36*
G01*
X97600000Y-118175000D02*
X97300000Y-118175000D01*
G75*
G02*
X97150000Y-118025000I0J150000D01*
G01*
X97150000Y-116850000D01*
G75*
G02*
X97300000Y-116700000I150000J0D01*
G01*
X97600000Y-116700000D01*
G75*
G02*
X97750000Y-116850000I0J-150000D01*
G01*
X97750000Y-118025000D01*
G75*
G02*
X97600000Y-118175000I-150000J0D01*
G01*
G37*
G36*
G01*
X96650000Y-116300000D02*
X96350000Y-116300000D01*
G75*
G02*
X96200000Y-116150000I0J150000D01*
G01*
X96200000Y-114975000D01*
G75*
G02*
X96350000Y-114825000I150000J0D01*
G01*
X96650000Y-114825000D01*
G75*
G02*
X96800000Y-114975000I0J-150000D01*
G01*
X96800000Y-116150000D01*
G75*
G02*
X96650000Y-116300000I-150000J0D01*
G01*
G37*
G36*
G01*
X165170000Y-67740000D02*
X164830000Y-67740000D01*
G75*
G02*
X164690000Y-67600000I0J140000D01*
G01*
X164690000Y-67320000D01*
G75*
G02*
X164830000Y-67180000I140000J0D01*
G01*
X165170000Y-67180000D01*
G75*
G02*
X165310000Y-67320000I0J-140000D01*
G01*
X165310000Y-67600000D01*
G75*
G02*
X165170000Y-67740000I-140000J0D01*
G01*
G37*
G36*
G01*
X165170000Y-66780000D02*
X164830000Y-66780000D01*
G75*
G02*
X164690000Y-66640000I0J140000D01*
G01*
X164690000Y-66360000D01*
G75*
G02*
X164830000Y-66220000I140000J0D01*
G01*
X165170000Y-66220000D01*
G75*
G02*
X165310000Y-66360000I0J-140000D01*
G01*
X165310000Y-66640000D01*
G75*
G02*
X165170000Y-66780000I-140000J0D01*
G01*
G37*
D11*
X136335000Y-111225000D03*
X136335000Y-109825000D03*
G36*
G01*
X156315000Y-111230000D02*
X156685000Y-111230000D01*
G75*
G02*
X156820000Y-111365000I0J-135000D01*
G01*
X156820000Y-111635000D01*
G75*
G02*
X156685000Y-111770000I-135000J0D01*
G01*
X156315000Y-111770000D01*
G75*
G02*
X156180000Y-111635000I0J135000D01*
G01*
X156180000Y-111365000D01*
G75*
G02*
X156315000Y-111230000I135000J0D01*
G01*
G37*
G36*
G01*
X156315000Y-112250000D02*
X156685000Y-112250000D01*
G75*
G02*
X156820000Y-112385000I0J-135000D01*
G01*
X156820000Y-112655000D01*
G75*
G02*
X156685000Y-112790000I-135000J0D01*
G01*
X156315000Y-112790000D01*
G75*
G02*
X156180000Y-112655000I0J135000D01*
G01*
X156180000Y-112385000D01*
G75*
G02*
X156315000Y-112250000I135000J0D01*
G01*
G37*
X161010000Y-131400000D03*
X161010000Y-130000000D03*
G36*
G01*
X164290000Y-124815000D02*
X164290000Y-125185000D01*
G75*
G02*
X164155000Y-125320000I-135000J0D01*
G01*
X163885000Y-125320000D01*
G75*
G02*
X163750000Y-125185000I0J135000D01*
G01*
X163750000Y-124815000D01*
G75*
G02*
X163885000Y-124680000I135000J0D01*
G01*
X164155000Y-124680000D01*
G75*
G02*
X164290000Y-124815000I0J-135000D01*
G01*
G37*
G36*
G01*
X163270000Y-124815000D02*
X163270000Y-125185000D01*
G75*
G02*
X163135000Y-125320000I-135000J0D01*
G01*
X162865000Y-125320000D01*
G75*
G02*
X162730000Y-125185000I0J135000D01*
G01*
X162730000Y-124815000D01*
G75*
G02*
X162865000Y-124680000I135000J0D01*
G01*
X163135000Y-124680000D01*
G75*
G02*
X163270000Y-124815000I0J-135000D01*
G01*
G37*
G36*
G01*
X53000000Y-121750000D02*
X53000000Y-118250000D01*
G75*
G02*
X53250000Y-118000000I250000J0D01*
G01*
X56750000Y-118000000D01*
G75*
G02*
X57000000Y-118250000I0J-250000D01*
G01*
X57000000Y-121750000D01*
G75*
G02*
X56750000Y-122000000I-250000J0D01*
G01*
X53250000Y-122000000D01*
G75*
G02*
X53000000Y-121750000I0J250000D01*
G01*
G37*
G36*
G01*
X160185000Y-127780000D02*
X159815000Y-127780000D01*
G75*
G02*
X159680000Y-127645000I0J135000D01*
G01*
X159680000Y-127375000D01*
G75*
G02*
X159815000Y-127240000I135000J0D01*
G01*
X160185000Y-127240000D01*
G75*
G02*
X160320000Y-127375000I0J-135000D01*
G01*
X160320000Y-127645000D01*
G75*
G02*
X160185000Y-127780000I-135000J0D01*
G01*
G37*
G36*
G01*
X160185000Y-126760000D02*
X159815000Y-126760000D01*
G75*
G02*
X159680000Y-126625000I0J135000D01*
G01*
X159680000Y-126355000D01*
G75*
G02*
X159815000Y-126220000I135000J0D01*
G01*
X160185000Y-126220000D01*
G75*
G02*
X160320000Y-126355000I0J-135000D01*
G01*
X160320000Y-126625000D01*
G75*
G02*
X160185000Y-126760000I-135000J0D01*
G01*
G37*
X161010000Y-111400000D03*
X161010000Y-110000000D03*
X161010000Y-134400000D03*
X161010000Y-133000000D03*
D10*
X55000000Y-145000000D03*
G36*
G01*
X74210000Y-139685000D02*
X74210000Y-139315000D01*
G75*
G02*
X74345000Y-139180000I135000J0D01*
G01*
X74615000Y-139180000D01*
G75*
G02*
X74750000Y-139315000I0J-135000D01*
G01*
X74750000Y-139685000D01*
G75*
G02*
X74615000Y-139820000I-135000J0D01*
G01*
X74345000Y-139820000D01*
G75*
G02*
X74210000Y-139685000I0J135000D01*
G01*
G37*
G36*
G01*
X75230000Y-139685000D02*
X75230000Y-139315000D01*
G75*
G02*
X75365000Y-139180000I135000J0D01*
G01*
X75635000Y-139180000D01*
G75*
G02*
X75770000Y-139315000I0J-135000D01*
G01*
X75770000Y-139685000D01*
G75*
G02*
X75635000Y-139820000I-135000J0D01*
G01*
X75365000Y-139820000D01*
G75*
G02*
X75230000Y-139685000I0J135000D01*
G01*
G37*
G36*
G01*
X91700000Y-118175000D02*
X91400000Y-118175000D01*
G75*
G02*
X91250000Y-118025000I0J150000D01*
G01*
X91250000Y-116850000D01*
G75*
G02*
X91400000Y-116700000I150000J0D01*
G01*
X91700000Y-116700000D01*
G75*
G02*
X91850000Y-116850000I0J-150000D01*
G01*
X91850000Y-118025000D01*
G75*
G02*
X91700000Y-118175000I-150000J0D01*
G01*
G37*
G36*
G01*
X93600000Y-118175000D02*
X93300000Y-118175000D01*
G75*
G02*
X93150000Y-118025000I0J150000D01*
G01*
X93150000Y-116850000D01*
G75*
G02*
X93300000Y-116700000I150000J0D01*
G01*
X93600000Y-116700000D01*
G75*
G02*
X93750000Y-116850000I0J-150000D01*
G01*
X93750000Y-118025000D01*
G75*
G02*
X93600000Y-118175000I-150000J0D01*
G01*
G37*
G36*
G01*
X92650000Y-116300000D02*
X92350000Y-116300000D01*
G75*
G02*
X92200000Y-116150000I0J150000D01*
G01*
X92200000Y-114975000D01*
G75*
G02*
X92350000Y-114825000I150000J0D01*
G01*
X92650000Y-114825000D01*
G75*
G02*
X92800000Y-114975000I0J-150000D01*
G01*
X92800000Y-116150000D01*
G75*
G02*
X92650000Y-116300000I-150000J0D01*
G01*
G37*
G36*
G01*
X165185000Y-111290000D02*
X164815000Y-111290000D01*
G75*
G02*
X164680000Y-111155000I0J135000D01*
G01*
X164680000Y-110885000D01*
G75*
G02*
X164815000Y-110750000I135000J0D01*
G01*
X165185000Y-110750000D01*
G75*
G02*
X165320000Y-110885000I0J-135000D01*
G01*
X165320000Y-111155000D01*
G75*
G02*
X165185000Y-111290000I-135000J0D01*
G01*
G37*
G36*
G01*
X165185000Y-110270000D02*
X164815000Y-110270000D01*
G75*
G02*
X164680000Y-110135000I0J135000D01*
G01*
X164680000Y-109865000D01*
G75*
G02*
X164815000Y-109730000I135000J0D01*
G01*
X165185000Y-109730000D01*
G75*
G02*
X165320000Y-109865000I0J-135000D01*
G01*
X165320000Y-110135000D01*
G75*
G02*
X165185000Y-110270000I-135000J0D01*
G01*
G37*
M02*
