M48
; DRILL file {KiCad 6.0.0-d3dd2cf0fa~116~ubuntu21.10.1} date Wed Jan 19 11:26:26 2022
; FORMAT={-:-/ absolute / inch / decimal}
; #@! TF.CreationDate,2022-01-19T11:26:26+00:00
; #@! TF.GenerationSoftware,Kicad,Pcbnew,6.0.0-d3dd2cf0fa~116~ubuntu21.10.1
; #@! TF.FileFunction,Plated,1,4,PTH
FMAT,2
INCH
; #@! TA.AperFunction,Plated,PTH,ViaDrill
T1C0.0157
; #@! TA.AperFunction,Plated,PTH,ComponentDrill
T2C0.0394
; #@! TA.AperFunction,Plated,PTH,ComponentDrill
T3C0.0500
; #@! TA.AperFunction,Plated,PTH,ComponentDrill
T4C0.0600
; #@! TA.AperFunction,Plated,PTH,ComponentDrill
T5C0.1181
; #@! TA.AperFunction,Plated,PTH,ComponentDrill
T6C0.1260
%
G90
G05
T1
X2.8937Y-3.1299
X2.8937Y-3.9173
X2.8937Y-4.7047
X2.8937Y-5.4921
X3.6811Y-3.1299
X3.6811Y-3.9173
X3.6811Y-4.7047
X3.6811Y-5.4921
X5.3278Y-2.5817
X5.3278Y-3.3691
X5.3278Y-4.1565
X5.3278Y-4.8455
X5.3278Y-4.9439
X5.3543Y-5.0466
X5.3612Y-2.6844
X5.3612Y-3.4718
X5.3612Y-4.2592
X6.2992Y-2.5886
X6.2992Y-3.376
X6.2992Y-4.1634
X6.2992Y-4.8425
X6.2992Y-4.9508
X6.3386Y-2.6919
X6.3386Y-3.4843
X6.3386Y-4.2717
X6.3386Y-5.0541
T2
X6.8547Y-3.4445
X6.8547Y-3.5445
X6.8547Y-3.6445
X6.8547Y-3.7445
X6.8547Y-3.8445
X6.8547Y-3.9445
X6.8547Y-4.0445
X6.8547Y-4.1445
X6.8547Y-4.2445
X6.8547Y-4.3445
X6.8547Y-4.4445
X6.8547Y-4.5445
X6.8547Y-4.6445
X6.8547Y-4.7445
X6.8547Y-4.8445
X6.8547Y-4.9445
X6.8547Y-5.0445
X6.8547Y-5.1445
X6.8547Y-5.2445
X6.8547Y-5.3445
X6.9547Y-3.4445
X6.9547Y-3.5445
X6.9547Y-3.6445
X6.9547Y-3.7445
X6.9547Y-3.8445
X6.9547Y-3.9445
X6.9547Y-4.0445
X6.9547Y-4.1445
X6.9547Y-4.2445
X6.9547Y-4.3445
X6.9547Y-4.4445
X6.9547Y-4.5445
X6.9547Y-4.6445
X6.9547Y-4.7445
X6.9547Y-4.8445
X6.9547Y-4.9445
X6.9547Y-5.0445
X6.9547Y-5.1445
X6.9547Y-5.2445
X6.9547Y-5.3445
T3
X4.9213Y-2.7559
X4.9213Y-3.5433
X4.9213Y-4.3307
X4.9213Y-5.1181
X5.9055Y-2.7559
X5.9055Y-3.5433
X5.9055Y-4.3307
X5.9055Y-5.1181
T4
X4.7963Y-2.6309
X4.7963Y-2.8809
X4.7963Y-3.4183
X4.7963Y-3.6683
X4.7963Y-4.2057
X4.7963Y-4.4557
X4.7963Y-4.9931
X4.7963Y-5.2431
X5.0463Y-2.6309
X5.0463Y-2.8809
X5.0463Y-3.4183
X5.0463Y-3.6683
X5.0463Y-4.2057
X5.0463Y-4.4557
X5.0463Y-4.9931
X5.0463Y-5.2431
X5.7805Y-2.6309
X5.7805Y-2.8809
X5.7805Y-3.4183
X5.7805Y-3.6683
X5.7805Y-4.2057
X5.7805Y-4.4557
X5.7805Y-4.9931
X5.7805Y-5.2431
X6.0305Y-2.6309
X6.0305Y-2.8809
X6.0305Y-3.4183
X6.0305Y-3.6683
X6.0305Y-4.2057
X6.0305Y-4.4557
X6.0305Y-4.9931
X6.0305Y-5.2431
T5
X2.1654Y-3.1496
X2.1654Y-3.937
X2.1654Y-4.7244
X2.9528Y-2.7559
X2.9528Y-3.5433
X2.9528Y-4.3307
X2.9528Y-5.1181
X3.2362Y-2.7559
X3.2362Y-3.5433
X3.2362Y-4.3307
X3.2362Y-5.1181
X3.7402Y-2.7559
X3.7402Y-3.5433
X3.7402Y-4.3307
X3.7402Y-5.1181
X4.0236Y-2.7559
X4.0236Y-3.5433
X4.0236Y-4.3307
X4.0236Y-5.1181
T6
X2.1654Y-2.1654
X2.1654Y-5.7087
X4.7244Y-2.1654
X4.7244Y-5.7087
X6.8898Y-2.1791
X6.8898Y-5.7087
T0
M30
