%TF.GenerationSoftware,KiCad,Pcbnew,6.0.0-d3dd2cf0fa~116~ubuntu21.10.1*%
%TF.CreationDate,2022-01-19T11:26:26+00:00*%
%TF.ProjectId,latbox_cycloneV,6c617462-6f78-45f6-9379-636c6f6e6556,rev?*%
%TF.SameCoordinates,Original*%
%TF.FileFunction,Paste,Top*%
%TF.FilePolarity,Positive*%
%FSLAX46Y46*%
G04 Gerber Fmt 4.6, Leading zero omitted, Abs format (unit mm)*
G04 Created by KiCad (PCBNEW 6.0.0-d3dd2cf0fa~116~ubuntu21.10.1) date 2022-01-19 11:26:26*
%MOMM*%
%LPD*%
G01*
G04 APERTURE LIST*
G04 Aperture macros list*
%AMRoundRect*
0 Rectangle with rounded corners*
0 $1 Rounding radius*
0 $2 $3 $4 $5 $6 $7 $8 $9 X,Y pos of 4 corners*
0 Add a 4 corners polygon primitive as box body*
4,1,4,$2,$3,$4,$5,$6,$7,$8,$9,$2,$3,0*
0 Add four circle primitives for the rounded corners*
1,1,$1+$1,$2,$3*
1,1,$1+$1,$4,$5*
1,1,$1+$1,$6,$7*
1,1,$1+$1,$8,$9*
0 Add four rect primitives between the rounded corners*
20,1,$1+$1,$2,$3,$4,$5,0*
20,1,$1+$1,$4,$5,$6,$7,0*
20,1,$1+$1,$6,$7,$8,$9,0*
20,1,$1+$1,$8,$9,$2,$3,0*%
G04 Aperture macros list end*
%ADD10R,0.700000X0.600000*%
%ADD11RoundRect,0.135000X-0.135000X-0.185000X0.135000X-0.185000X0.135000X0.185000X-0.135000X0.185000X0*%
%ADD12R,0.400000X0.650000*%
%ADD13RoundRect,0.135000X0.135000X0.185000X-0.135000X0.185000X-0.135000X-0.185000X0.135000X-0.185000X0*%
%ADD14RoundRect,0.140000X-0.140000X-0.170000X0.140000X-0.170000X0.140000X0.170000X-0.140000X0.170000X0*%
%ADD15RoundRect,0.135000X0.185000X-0.135000X0.185000X0.135000X-0.185000X0.135000X-0.185000X-0.135000X0*%
%ADD16RoundRect,0.150000X0.150000X-0.587500X0.150000X0.587500X-0.150000X0.587500X-0.150000X-0.587500X0*%
%ADD17RoundRect,0.135000X-0.185000X0.135000X-0.185000X-0.135000X0.185000X-0.135000X0.185000X0.135000X0*%
%ADD18RoundRect,0.140000X0.170000X-0.140000X0.170000X0.140000X-0.170000X0.140000X-0.170000X-0.140000X0*%
G04 APERTURE END LIST*
D10*
%TO.C,D301*%
X136335000Y-71225000D03*
X136335000Y-69825000D03*
%TD*%
D11*
%TO.C,R409*%
X74480000Y-79500000D03*
X75500000Y-79500000D03*
%TD*%
D12*
%TO.C,U303*%
X137175000Y-108275000D03*
X137825000Y-108275000D03*
X138475000Y-108275000D03*
X138475000Y-106375000D03*
X137175000Y-106375000D03*
%TD*%
D13*
%TO.C,R417*%
X72520000Y-119500000D03*
X71500000Y-119500000D03*
%TD*%
D14*
%TO.C,C203*%
X157770000Y-106500000D03*
X158730000Y-106500000D03*
%TD*%
D10*
%TO.C,D303*%
X136325000Y-91225000D03*
X136325000Y-89825000D03*
%TD*%
D13*
%TO.C,R432*%
X97510000Y-133500000D03*
X96490000Y-133500000D03*
%TD*%
D10*
%TO.C,D202*%
X161000000Y-74400000D03*
X161000000Y-73000000D03*
%TD*%
D12*
%TO.C,U304*%
X137175000Y-128275000D03*
X137825000Y-128275000D03*
X138475000Y-128275000D03*
X138475000Y-126375000D03*
X137175000Y-126375000D03*
%TD*%
D15*
%TO.C,R314*%
X140325000Y-110845000D03*
X140325000Y-109825000D03*
%TD*%
%TO.C,R213*%
X160000000Y-107510000D03*
X160000000Y-106490000D03*
%TD*%
D13*
%TO.C,R222*%
X164020000Y-105000000D03*
X163000000Y-105000000D03*
%TD*%
D16*
%TO.C,Q401*%
X71550000Y-77437500D03*
X73450000Y-77437500D03*
X72500000Y-75562500D03*
%TD*%
%TO.C,Q402*%
X91550000Y-77437500D03*
X93450000Y-77437500D03*
X92500000Y-75562500D03*
%TD*%
D14*
%TO.C,C206*%
X158270000Y-85000000D03*
X159230000Y-85000000D03*
%TD*%
D11*
%TO.C,R413*%
X74480000Y-99500000D03*
X75500000Y-99500000D03*
%TD*%
D14*
%TO.C,C212*%
X162530000Y-130000000D03*
X163490000Y-130000000D03*
%TD*%
D16*
%TO.C,Q411*%
X71550000Y-137437500D03*
X73450000Y-137437500D03*
X72500000Y-135562500D03*
%TD*%
D15*
%TO.C,R211*%
X160000000Y-87510000D03*
X160000000Y-86490000D03*
%TD*%
D11*
%TO.C,R308*%
X131815000Y-129825000D03*
X132835000Y-129825000D03*
%TD*%
D13*
%TO.C,R406*%
X73510000Y-93500000D03*
X72490000Y-93500000D03*
%TD*%
%TO.C,R410*%
X77510000Y-73500000D03*
X76490000Y-73500000D03*
%TD*%
D14*
%TO.C,C309*%
X137825000Y-69825000D03*
X138785000Y-69825000D03*
%TD*%
D13*
%TO.C,R408*%
X93510000Y-93500000D03*
X92490000Y-93500000D03*
%TD*%
%TO.C,R320*%
X139345000Y-84825000D03*
X138325000Y-84825000D03*
%TD*%
D11*
%TO.C,R411*%
X94480000Y-79500000D03*
X95500000Y-79500000D03*
%TD*%
%TO.C,R307*%
X131825000Y-109825000D03*
X132845000Y-109825000D03*
%TD*%
D10*
%TO.C,D213*%
X159000000Y-110000000D03*
X159000000Y-111400000D03*
%TD*%
D11*
%TO.C,R206*%
X156490000Y-90000000D03*
X157510000Y-90000000D03*
%TD*%
D15*
%TO.C,R310*%
X140325000Y-70845000D03*
X140325000Y-69825000D03*
%TD*%
D10*
%TO.C,D304*%
X136325000Y-94325000D03*
X136325000Y-92925000D03*
%TD*%
D16*
%TO.C,Q412*%
X91550000Y-137437500D03*
X93450000Y-137437500D03*
X92500000Y-135562500D03*
%TD*%
D10*
%TO.C,D313*%
X134325000Y-109825000D03*
X134325000Y-111225000D03*
%TD*%
D13*
%TO.C,R405*%
X72520000Y-99500000D03*
X71500000Y-99500000D03*
%TD*%
%TO.C,R322*%
X139345000Y-104825000D03*
X138325000Y-104825000D03*
%TD*%
D11*
%TO.C,R425*%
X74480000Y-119500000D03*
X75500000Y-119500000D03*
%TD*%
%TO.C,R207*%
X156500000Y-110000000D03*
X157520000Y-110000000D03*
%TD*%
D17*
%TO.C,R301*%
X131825000Y-71325000D03*
X131825000Y-72345000D03*
%TD*%
D10*
%TO.C,D212*%
X159000000Y-93000000D03*
X159000000Y-94400000D03*
%TD*%
%TO.C,D315*%
X134325000Y-129825000D03*
X134325000Y-131225000D03*
%TD*%
D13*
%TO.C,R317*%
X136835000Y-64825000D03*
X135815000Y-64825000D03*
%TD*%
D17*
%TO.C,R204*%
X156500000Y-131490000D03*
X156500000Y-132510000D03*
%TD*%
D18*
%TO.C,C214*%
X165000000Y-87460000D03*
X165000000Y-86500000D03*
%TD*%
D13*
%TO.C,R321*%
X136835000Y-104825000D03*
X135815000Y-104825000D03*
%TD*%
D14*
%TO.C,C302*%
X133095000Y-86325000D03*
X134055000Y-86325000D03*
%TD*%
D10*
%TO.C,D204*%
X161000000Y-94500000D03*
X161000000Y-93100000D03*
%TD*%
D14*
%TO.C,C306*%
X133595000Y-84825000D03*
X134555000Y-84825000D03*
%TD*%
D10*
%TO.C,D308*%
X136335000Y-134225000D03*
X136335000Y-132825000D03*
%TD*%
D15*
%TO.C,R316*%
X140325000Y-130845000D03*
X140325000Y-129825000D03*
%TD*%
D13*
%TO.C,R430*%
X77510000Y-133500000D03*
X76490000Y-133500000D03*
%TD*%
%TO.C,R403*%
X92520000Y-79500000D03*
X91500000Y-79500000D03*
%TD*%
%TO.C,R414*%
X77510000Y-93500000D03*
X76490000Y-93500000D03*
%TD*%
D10*
%TO.C,D311*%
X134325000Y-89825000D03*
X134325000Y-91225000D03*
%TD*%
D13*
%TO.C,R319*%
X136835000Y-84825000D03*
X135815000Y-84825000D03*
%TD*%
D17*
%TO.C,R202*%
X156500000Y-91500000D03*
X156500000Y-92520000D03*
%TD*%
D18*
%TO.C,C313*%
X140325000Y-67285000D03*
X140325000Y-66325000D03*
%TD*%
D14*
%TO.C,C210*%
X162500000Y-90000000D03*
X163460000Y-90000000D03*
%TD*%
D13*
%TO.C,R401*%
X72520000Y-79500000D03*
X71500000Y-79500000D03*
%TD*%
%TO.C,R424*%
X93510000Y-133500000D03*
X92490000Y-133500000D03*
%TD*%
D14*
%TO.C,C208*%
X158270000Y-125000000D03*
X159230000Y-125000000D03*
%TD*%
D13*
%TO.C,R218*%
X164020000Y-65000000D03*
X163000000Y-65000000D03*
%TD*%
D14*
%TO.C,C207*%
X158270000Y-105000000D03*
X159230000Y-105000000D03*
%TD*%
D11*
%TO.C,R415*%
X94480000Y-99500000D03*
X95500000Y-99500000D03*
%TD*%
D13*
%TO.C,R420*%
X93510000Y-113500000D03*
X92490000Y-113500000D03*
%TD*%
D17*
%TO.C,R201*%
X156500000Y-71500000D03*
X156500000Y-72520000D03*
%TD*%
D15*
%TO.C,R309*%
X135325000Y-67335000D03*
X135325000Y-66315000D03*
%TD*%
D13*
%TO.C,R412*%
X97510000Y-73500000D03*
X96490000Y-73500000D03*
%TD*%
D17*
%TO.C,R303*%
X131825000Y-111325000D03*
X131825000Y-112345000D03*
%TD*%
D13*
%TO.C,R419*%
X92520000Y-119500000D03*
X91500000Y-119500000D03*
%TD*%
%TO.C,R402*%
X73510000Y-73500000D03*
X72490000Y-73500000D03*
%TD*%
D15*
%TO.C,R315*%
X135325000Y-127335000D03*
X135325000Y-126315000D03*
%TD*%
D13*
%TO.C,R324*%
X139345000Y-124825000D03*
X138325000Y-124825000D03*
%TD*%
D14*
%TO.C,C307*%
X133595000Y-104825000D03*
X134555000Y-104825000D03*
%TD*%
D10*
%TO.C,D201*%
X161010000Y-71400000D03*
X161010000Y-70000000D03*
%TD*%
D13*
%TO.C,R219*%
X161510000Y-85000000D03*
X160490000Y-85000000D03*
%TD*%
%TO.C,R418*%
X73510000Y-113500000D03*
X72490000Y-113500000D03*
%TD*%
D11*
%TO.C,R306*%
X131815000Y-89825000D03*
X132835000Y-89825000D03*
%TD*%
D10*
%TO.C,D309*%
X134325000Y-69825000D03*
X134325000Y-71225000D03*
%TD*%
D11*
%TO.C,R205*%
X156500000Y-70000000D03*
X157520000Y-70000000D03*
%TD*%
D14*
%TO.C,C209*%
X162500000Y-70000000D03*
X163460000Y-70000000D03*
%TD*%
D10*
%TO.C,D211*%
X159000000Y-90000000D03*
X159000000Y-91400000D03*
%TD*%
D14*
%TO.C,C311*%
X137825000Y-109825000D03*
X138785000Y-109825000D03*
%TD*%
D16*
%TO.C,Q406*%
X95550000Y-77437500D03*
X97450000Y-77437500D03*
X96500000Y-75562500D03*
%TD*%
D15*
%TO.C,R312*%
X140325000Y-90845000D03*
X140325000Y-89825000D03*
%TD*%
D14*
%TO.C,C303*%
X133095000Y-106325000D03*
X134055000Y-106325000D03*
%TD*%
D13*
%TO.C,R407*%
X92520000Y-99500000D03*
X91500000Y-99500000D03*
%TD*%
D11*
%TO.C,R427*%
X94480000Y-119500000D03*
X95500000Y-119500000D03*
%TD*%
D13*
%TO.C,R426*%
X77510000Y-113500000D03*
X76490000Y-113500000D03*
%TD*%
D10*
%TO.C,D216*%
X159010000Y-133000000D03*
X159010000Y-134400000D03*
%TD*%
%TO.C,D310*%
X134325000Y-72825000D03*
X134325000Y-74225000D03*
%TD*%
%TO.C,D206*%
X161010000Y-114400000D03*
X161010000Y-113000000D03*
%TD*%
D12*
%TO.C,U204*%
X161850000Y-128450000D03*
X162500000Y-128450000D03*
X163150000Y-128450000D03*
X163150000Y-126550000D03*
X161850000Y-126550000D03*
%TD*%
D11*
%TO.C,R431*%
X94480000Y-139500000D03*
X95500000Y-139500000D03*
%TD*%
D15*
%TO.C,R313*%
X135325000Y-107335000D03*
X135325000Y-106315000D03*
%TD*%
D18*
%TO.C,C314*%
X140325000Y-87285000D03*
X140325000Y-86325000D03*
%TD*%
D10*
%TO.C,D307*%
X136335000Y-131225000D03*
X136335000Y-129825000D03*
%TD*%
%TO.C,D316*%
X134335000Y-132825000D03*
X134335000Y-134225000D03*
%TD*%
D17*
%TO.C,R304*%
X131825000Y-131315000D03*
X131825000Y-132335000D03*
%TD*%
D15*
%TO.C,R209*%
X160000000Y-67510000D03*
X160000000Y-66490000D03*
%TD*%
D14*
%TO.C,C301*%
X133095000Y-66325000D03*
X134055000Y-66325000D03*
%TD*%
D10*
%TO.C,D314*%
X134325000Y-112825000D03*
X134325000Y-114225000D03*
%TD*%
D13*
%TO.C,R421*%
X72520000Y-139500000D03*
X71500000Y-139500000D03*
%TD*%
D18*
%TO.C,C216*%
X165000000Y-127480000D03*
X165000000Y-126520000D03*
%TD*%
D13*
%TO.C,R221*%
X161510000Y-105000000D03*
X160490000Y-105000000D03*
%TD*%
D16*
%TO.C,Q404*%
X91550000Y-97437500D03*
X93450000Y-97437500D03*
X92500000Y-95562500D03*
%TD*%
D18*
%TO.C,C215*%
X165000000Y-107460000D03*
X165000000Y-106500000D03*
%TD*%
D13*
%TO.C,R323*%
X136835000Y-124825000D03*
X135815000Y-124825000D03*
%TD*%
D16*
%TO.C,Q407*%
X75550000Y-97437500D03*
X77450000Y-97437500D03*
X76500000Y-95562500D03*
%TD*%
%TO.C,Q416*%
X95550000Y-137437500D03*
X97450000Y-137437500D03*
X96500000Y-135562500D03*
%TD*%
D13*
%TO.C,R416*%
X97510000Y-93500000D03*
X96490000Y-93500000D03*
%TD*%
D10*
%TO.C,D210*%
X159000000Y-73000000D03*
X159000000Y-74400000D03*
%TD*%
D14*
%TO.C,C201*%
X157770000Y-66500000D03*
X158730000Y-66500000D03*
%TD*%
D15*
%TO.C,R216*%
X165000000Y-131020000D03*
X165000000Y-130000000D03*
%TD*%
D13*
%TO.C,R223*%
X161510000Y-125000000D03*
X160490000Y-125000000D03*
%TD*%
D18*
%TO.C,C315*%
X140325000Y-107285000D03*
X140325000Y-106325000D03*
%TD*%
D17*
%TO.C,R302*%
X131825000Y-91325000D03*
X131825000Y-92345000D03*
%TD*%
D10*
%TO.C,D215*%
X159000000Y-130000000D03*
X159000000Y-131400000D03*
%TD*%
D18*
%TO.C,C316*%
X140325000Y-127305000D03*
X140325000Y-126345000D03*
%TD*%
D13*
%TO.C,R422*%
X73510000Y-133500000D03*
X72490000Y-133500000D03*
%TD*%
%TO.C,R220*%
X164020000Y-85000000D03*
X163000000Y-85000000D03*
%TD*%
D14*
%TO.C,C202*%
X157770000Y-86500000D03*
X158730000Y-86500000D03*
%TD*%
D13*
%TO.C,R428*%
X97510000Y-113500000D03*
X96490000Y-113500000D03*
%TD*%
D16*
%TO.C,Q409*%
X71550000Y-117437500D03*
X73450000Y-117437500D03*
X72500000Y-115562500D03*
%TD*%
D12*
%TO.C,U201*%
X161850000Y-68450000D03*
X162500000Y-68450000D03*
X163150000Y-68450000D03*
X163150000Y-66550000D03*
X161850000Y-66550000D03*
%TD*%
D14*
%TO.C,C312*%
X137855000Y-129825000D03*
X138815000Y-129825000D03*
%TD*%
D16*
%TO.C,Q403*%
X71550000Y-97437500D03*
X73450000Y-97437500D03*
X72500000Y-95562500D03*
%TD*%
D11*
%TO.C,R208*%
X156490000Y-130000000D03*
X157510000Y-130000000D03*
%TD*%
D10*
%TO.C,D312*%
X134325000Y-92825000D03*
X134325000Y-94225000D03*
%TD*%
D16*
%TO.C,Q413*%
X75550000Y-117437500D03*
X77450000Y-117437500D03*
X76500000Y-115562500D03*
%TD*%
D10*
%TO.C,D203*%
X161000000Y-91400000D03*
X161000000Y-90000000D03*
%TD*%
D14*
%TO.C,C211*%
X162500000Y-110000000D03*
X163460000Y-110000000D03*
%TD*%
D16*
%TO.C,Q415*%
X75550000Y-137437500D03*
X77450000Y-137437500D03*
X76500000Y-135562500D03*
%TD*%
D13*
%TO.C,R404*%
X93510000Y-73500000D03*
X92490000Y-73500000D03*
%TD*%
D12*
%TO.C,U202*%
X161850000Y-88450000D03*
X162500000Y-88450000D03*
X163150000Y-88450000D03*
X163150000Y-86550000D03*
X161850000Y-86550000D03*
%TD*%
D16*
%TO.C,Q408*%
X95550000Y-97437500D03*
X97450000Y-97437500D03*
X96500000Y-95562500D03*
%TD*%
D13*
%TO.C,R217*%
X161510000Y-65000000D03*
X160490000Y-65000000D03*
%TD*%
D15*
%TO.C,R311*%
X135325000Y-87335000D03*
X135325000Y-86315000D03*
%TD*%
D14*
%TO.C,C308*%
X133595000Y-124825000D03*
X134555000Y-124825000D03*
%TD*%
D12*
%TO.C,U302*%
X137175000Y-88275000D03*
X137825000Y-88275000D03*
X138475000Y-88275000D03*
X138475000Y-86375000D03*
X137175000Y-86375000D03*
%TD*%
D16*
%TO.C,Q405*%
X75550000Y-77437500D03*
X77450000Y-77437500D03*
X76500000Y-75562500D03*
%TD*%
D13*
%TO.C,R423*%
X92520000Y-139500000D03*
X91500000Y-139500000D03*
%TD*%
D10*
%TO.C,D306*%
X136335000Y-114225000D03*
X136335000Y-112825000D03*
%TD*%
D14*
%TO.C,C310*%
X137825000Y-89825000D03*
X138785000Y-89825000D03*
%TD*%
D11*
%TO.C,R305*%
X131825000Y-69825000D03*
X132845000Y-69825000D03*
%TD*%
D13*
%TO.C,R318*%
X139345000Y-64825000D03*
X138325000Y-64825000D03*
%TD*%
D14*
%TO.C,C304*%
X133095000Y-126325000D03*
X134055000Y-126325000D03*
%TD*%
D10*
%TO.C,D302*%
X136325000Y-74225000D03*
X136325000Y-72825000D03*
%TD*%
D15*
%TO.C,R212*%
X165000000Y-91020000D03*
X165000000Y-90000000D03*
%TD*%
D14*
%TO.C,C305*%
X133595000Y-64825000D03*
X134555000Y-64825000D03*
%TD*%
D12*
%TO.C,U203*%
X161850000Y-108450000D03*
X162500000Y-108450000D03*
X163150000Y-108450000D03*
X163150000Y-106550000D03*
X161850000Y-106550000D03*
%TD*%
D10*
%TO.C,D214*%
X159000000Y-113000000D03*
X159000000Y-114400000D03*
%TD*%
%TO.C,D209*%
X159000000Y-70000000D03*
X159000000Y-71400000D03*
%TD*%
D15*
%TO.C,R210*%
X165000000Y-71020000D03*
X165000000Y-70000000D03*
%TD*%
D12*
%TO.C,U301*%
X137175000Y-68275000D03*
X137825000Y-68275000D03*
X138475000Y-68275000D03*
X138475000Y-66375000D03*
X137175000Y-66375000D03*
%TD*%
D14*
%TO.C,C204*%
X157770000Y-126500000D03*
X158730000Y-126500000D03*
%TD*%
%TO.C,C205*%
X158270000Y-65000000D03*
X159230000Y-65000000D03*
%TD*%
D16*
%TO.C,Q414*%
X95550000Y-117437500D03*
X97450000Y-117437500D03*
X96500000Y-115562500D03*
%TD*%
D18*
%TO.C,C213*%
X165000000Y-67460000D03*
X165000000Y-66500000D03*
%TD*%
D10*
%TO.C,D305*%
X136335000Y-111225000D03*
X136335000Y-109825000D03*
%TD*%
D17*
%TO.C,R203*%
X156500000Y-111500000D03*
X156500000Y-112520000D03*
%TD*%
D10*
%TO.C,D207*%
X161010000Y-131400000D03*
X161010000Y-130000000D03*
%TD*%
D13*
%TO.C,R224*%
X164020000Y-125000000D03*
X163000000Y-125000000D03*
%TD*%
D15*
%TO.C,R215*%
X160000000Y-127510000D03*
X160000000Y-126490000D03*
%TD*%
D10*
%TO.C,D205*%
X161010000Y-111400000D03*
X161010000Y-110000000D03*
%TD*%
%TO.C,D208*%
X161010000Y-134400000D03*
X161010000Y-133000000D03*
%TD*%
D11*
%TO.C,R429*%
X74480000Y-139500000D03*
X75500000Y-139500000D03*
%TD*%
D16*
%TO.C,Q410*%
X91550000Y-117437500D03*
X93450000Y-117437500D03*
X92500000Y-115562500D03*
%TD*%
D15*
%TO.C,R214*%
X165000000Y-111020000D03*
X165000000Y-110000000D03*
%TD*%
M02*
