%TF.GenerationSoftware,KiCad,Pcbnew,6.0.0-d3dd2cf0fa~116~ubuntu21.10.1*%
%TF.CreationDate,2022-01-19T11:26:26+00:00*%
%TF.ProjectId,latbox_cycloneV,6c617462-6f78-45f6-9379-636c6f6e6556,rev?*%
%TF.SameCoordinates,Original*%
%TF.FileFunction,Soldermask,Bot*%
%TF.FilePolarity,Negative*%
%FSLAX46Y46*%
G04 Gerber Fmt 4.6, Leading zero omitted, Abs format (unit mm)*
G04 Created by KiCad (PCBNEW 6.0.0-d3dd2cf0fa~116~ubuntu21.10.1) date 2022-01-19 11:26:26*
%MOMM*%
%LPD*%
G01*
G04 APERTURE LIST*
G04 Aperture macros list*
%AMRoundRect*
0 Rectangle with rounded corners*
0 $1 Rounding radius*
0 $2 $3 $4 $5 $6 $7 $8 $9 X,Y pos of 4 corners*
0 Add a 4 corners polygon primitive as box body*
4,1,4,$2,$3,$4,$5,$6,$7,$8,$9,$2,$3,0*
0 Add four circle primitives for the rounded corners*
1,1,$1+$1,$2,$3*
1,1,$1+$1,$4,$5*
1,1,$1+$1,$6,$7*
1,1,$1+$1,$8,$9*
0 Add four rect primitives between the rounded corners*
20,1,$1+$1,$2,$3,$4,$5,0*
20,1,$1+$1,$4,$5,$6,$7,0*
20,1,$1+$1,$6,$7,$8,$9,0*
20,1,$1+$1,$8,$9,$2,$3,0*%
G04 Aperture macros list end*
%ADD10C,5.500000*%
%ADD11RoundRect,0.250000X-1.750000X-1.750000X1.750000X-1.750000X1.750000X1.750000X-1.750000X1.750000X0*%
%ADD12C,4.000000*%
%ADD13C,3.556000*%
%ADD14C,3.810000*%
%ADD15R,1.700000X1.700000*%
%ADD16O,1.700000X1.700000*%
G04 APERTURE END LIST*
D10*
%TO.C,H101*%
X55000000Y-55000000D03*
%TD*%
D11*
%TO.C,J406*%
X95000000Y-110000000D03*
D12*
X102200000Y-110000000D03*
%TD*%
D11*
%TO.C,J402*%
X95000000Y-70000000D03*
D12*
X102200000Y-70000000D03*
%TD*%
D11*
%TO.C,J407*%
X75000000Y-130000000D03*
D12*
X82200000Y-130000000D03*
%TD*%
D11*
%TO.C,J408*%
X95000000Y-130000000D03*
D12*
X102200000Y-130000000D03*
%TD*%
D11*
%TO.C,J411*%
X55000000Y-80000000D03*
%TD*%
D13*
%TO.C,J304*%
X125000000Y-130000000D03*
D14*
X121825000Y-133175000D03*
X121825000Y-126825000D03*
X128175000Y-133175000D03*
X128175000Y-126825000D03*
%TD*%
D13*
%TO.C,J204*%
X150000000Y-130000000D03*
D14*
X153175000Y-126825000D03*
X153175000Y-133175000D03*
X146825000Y-126825000D03*
X146825000Y-133175000D03*
%TD*%
D11*
%TO.C,J401*%
X75000000Y-70000000D03*
D12*
X82200000Y-70000000D03*
%TD*%
D11*
%TO.C,J405*%
X75000000Y-110000000D03*
D12*
X82200000Y-110000000D03*
%TD*%
D10*
%TO.C,H102*%
X175000000Y-55350000D03*
%TD*%
D13*
%TO.C,J301*%
X125000000Y-70000000D03*
D14*
X121825000Y-73175000D03*
X121825000Y-66825000D03*
X128175000Y-73175000D03*
X128175000Y-66825000D03*
%TD*%
D11*
%TO.C,J403*%
X75000000Y-90000000D03*
D12*
X82200000Y-90000000D03*
%TD*%
D11*
%TO.C,J410*%
X55000000Y-100000000D03*
%TD*%
D13*
%TO.C,J202*%
X150000000Y-90000000D03*
D14*
X146825000Y-93175000D03*
X153175000Y-93175000D03*
X153175000Y-86825000D03*
X146825000Y-86825000D03*
%TD*%
D15*
%TO.C,J101*%
X174110000Y-135750000D03*
D16*
X176650000Y-135750000D03*
X174110000Y-133210000D03*
X176650000Y-133210000D03*
X174110000Y-130670000D03*
X176650000Y-130670000D03*
X174110000Y-128130000D03*
X176650000Y-128130000D03*
X174110000Y-125590000D03*
X176650000Y-125590000D03*
X174110000Y-123050000D03*
X176650000Y-123050000D03*
X174110000Y-120510000D03*
X176650000Y-120510000D03*
X174110000Y-117970000D03*
X176650000Y-117970000D03*
X174110000Y-115430000D03*
X176650000Y-115430000D03*
X174110000Y-112890000D03*
X176650000Y-112890000D03*
X174110000Y-110350000D03*
X176650000Y-110350000D03*
X174110000Y-107810000D03*
X176650000Y-107810000D03*
X174110000Y-105270000D03*
X176650000Y-105270000D03*
X174110000Y-102730000D03*
X176650000Y-102730000D03*
X174110000Y-100190000D03*
X176650000Y-100190000D03*
X174110000Y-97650000D03*
X176650000Y-97650000D03*
X174110000Y-95110000D03*
X176650000Y-95110000D03*
X174110000Y-92570000D03*
X176650000Y-92570000D03*
X174110000Y-90030000D03*
X176650000Y-90030000D03*
X174110000Y-87490000D03*
X176650000Y-87490000D03*
%TD*%
D10*
%TO.C,H105*%
X175000000Y-145000000D03*
%TD*%
%TO.C,H106*%
X120000000Y-145000000D03*
%TD*%
D11*
%TO.C,J404*%
X95000000Y-90000000D03*
D12*
X102200000Y-90000000D03*
%TD*%
D13*
%TO.C,J302*%
X125000000Y-90000000D03*
D14*
X128175000Y-86825000D03*
X121825000Y-93175000D03*
X128175000Y-93175000D03*
X121825000Y-86825000D03*
%TD*%
D13*
%TO.C,J303*%
X125000000Y-110000000D03*
D14*
X128175000Y-113175000D03*
X128175000Y-106825000D03*
X121825000Y-113175000D03*
X121825000Y-106825000D03*
%TD*%
D13*
%TO.C,J201*%
X150000000Y-70000000D03*
D14*
X153175000Y-73175000D03*
X146825000Y-73175000D03*
X146825000Y-66825000D03*
X153175000Y-66825000D03*
%TD*%
D13*
%TO.C,J203*%
X150000000Y-110000000D03*
D14*
X146825000Y-113175000D03*
X153175000Y-113175000D03*
X153175000Y-106825000D03*
X146825000Y-106825000D03*
%TD*%
D10*
%TO.C,H104*%
X120000000Y-55000000D03*
%TD*%
D11*
%TO.C,J409*%
X55000000Y-120000000D03*
%TD*%
D10*
%TO.C,H103*%
X55000000Y-145000000D03*
%TD*%
M02*
