G04 #@! TF.GenerationSoftware,KiCad,Pcbnew,6.0.0-d3dd2cf0fa~116~ubuntu21.10.1*
G04 #@! TF.CreationDate,2022-01-19T11:25:05+00:00*
G04 #@! TF.ProjectId,latbox_cycloneV,6c617462-6f78-45f6-9379-636c6f6e6556,rev?*
G04 #@! TF.SameCoordinates,Original*
G04 #@! TF.FileFunction,Soldermask,Bot*
G04 #@! TF.FilePolarity,Negative*
%FSLAX46Y46*%
G04 Gerber Fmt 4.6, Leading zero omitted, Abs format (unit mm)*
G04 Created by KiCad (PCBNEW 6.0.0-d3dd2cf0fa~116~ubuntu21.10.1) date 2022-01-19 11:25:05*
%MOMM*%
%LPD*%
G01*
G04 APERTURE LIST*
%ADD10C,5.500000*%
%ADD11C,4.000000*%
%ADD12C,3.556000*%
%ADD13C,3.810000*%
%ADD14R,1.700000X1.700000*%
%ADD15O,1.700000X1.700000*%
G04 APERTURE END LIST*
D10*
X55000000Y-55000000D03*
G36*
G01*
X93000000Y-111750000D02*
X93000000Y-108250000D01*
G75*
G02*
X93250000Y-108000000I250000J0D01*
G01*
X96750000Y-108000000D01*
G75*
G02*
X97000000Y-108250000I0J-250000D01*
G01*
X97000000Y-111750000D01*
G75*
G02*
X96750000Y-112000000I-250000J0D01*
G01*
X93250000Y-112000000D01*
G75*
G02*
X93000000Y-111750000I0J250000D01*
G01*
G37*
D11*
X102200000Y-110000000D03*
G36*
G01*
X93000000Y-71750000D02*
X93000000Y-68250000D01*
G75*
G02*
X93250000Y-68000000I250000J0D01*
G01*
X96750000Y-68000000D01*
G75*
G02*
X97000000Y-68250000I0J-250000D01*
G01*
X97000000Y-71750000D01*
G75*
G02*
X96750000Y-72000000I-250000J0D01*
G01*
X93250000Y-72000000D01*
G75*
G02*
X93000000Y-71750000I0J250000D01*
G01*
G37*
X102200000Y-70000000D03*
G36*
G01*
X73000000Y-131750000D02*
X73000000Y-128250000D01*
G75*
G02*
X73250000Y-128000000I250000J0D01*
G01*
X76750000Y-128000000D01*
G75*
G02*
X77000000Y-128250000I0J-250000D01*
G01*
X77000000Y-131750000D01*
G75*
G02*
X76750000Y-132000000I-250000J0D01*
G01*
X73250000Y-132000000D01*
G75*
G02*
X73000000Y-131750000I0J250000D01*
G01*
G37*
X82200000Y-130000000D03*
G36*
G01*
X93000000Y-131750000D02*
X93000000Y-128250000D01*
G75*
G02*
X93250000Y-128000000I250000J0D01*
G01*
X96750000Y-128000000D01*
G75*
G02*
X97000000Y-128250000I0J-250000D01*
G01*
X97000000Y-131750000D01*
G75*
G02*
X96750000Y-132000000I-250000J0D01*
G01*
X93250000Y-132000000D01*
G75*
G02*
X93000000Y-131750000I0J250000D01*
G01*
G37*
X102200000Y-130000000D03*
G36*
G01*
X53000000Y-81750000D02*
X53000000Y-78250000D01*
G75*
G02*
X53250000Y-78000000I250000J0D01*
G01*
X56750000Y-78000000D01*
G75*
G02*
X57000000Y-78250000I0J-250000D01*
G01*
X57000000Y-81750000D01*
G75*
G02*
X56750000Y-82000000I-250000J0D01*
G01*
X53250000Y-82000000D01*
G75*
G02*
X53000000Y-81750000I0J250000D01*
G01*
G37*
D12*
X125000000Y-130000000D03*
D13*
X121825000Y-133175000D03*
X121825000Y-126825000D03*
X128175000Y-133175000D03*
X128175000Y-126825000D03*
D12*
X150000000Y-130000000D03*
D13*
X153175000Y-126825000D03*
X153175000Y-133175000D03*
X146825000Y-126825000D03*
X146825000Y-133175000D03*
G36*
G01*
X73000000Y-71750000D02*
X73000000Y-68250000D01*
G75*
G02*
X73250000Y-68000000I250000J0D01*
G01*
X76750000Y-68000000D01*
G75*
G02*
X77000000Y-68250000I0J-250000D01*
G01*
X77000000Y-71750000D01*
G75*
G02*
X76750000Y-72000000I-250000J0D01*
G01*
X73250000Y-72000000D01*
G75*
G02*
X73000000Y-71750000I0J250000D01*
G01*
G37*
D11*
X82200000Y-70000000D03*
G36*
G01*
X73000000Y-111750000D02*
X73000000Y-108250000D01*
G75*
G02*
X73250000Y-108000000I250000J0D01*
G01*
X76750000Y-108000000D01*
G75*
G02*
X77000000Y-108250000I0J-250000D01*
G01*
X77000000Y-111750000D01*
G75*
G02*
X76750000Y-112000000I-250000J0D01*
G01*
X73250000Y-112000000D01*
G75*
G02*
X73000000Y-111750000I0J250000D01*
G01*
G37*
X82200000Y-110000000D03*
D10*
X175000000Y-55350000D03*
D12*
X125000000Y-70000000D03*
D13*
X121825000Y-73175000D03*
X121825000Y-66825000D03*
X128175000Y-73175000D03*
X128175000Y-66825000D03*
G36*
G01*
X73000000Y-91750000D02*
X73000000Y-88250000D01*
G75*
G02*
X73250000Y-88000000I250000J0D01*
G01*
X76750000Y-88000000D01*
G75*
G02*
X77000000Y-88250000I0J-250000D01*
G01*
X77000000Y-91750000D01*
G75*
G02*
X76750000Y-92000000I-250000J0D01*
G01*
X73250000Y-92000000D01*
G75*
G02*
X73000000Y-91750000I0J250000D01*
G01*
G37*
D11*
X82200000Y-90000000D03*
G36*
G01*
X53000000Y-101750000D02*
X53000000Y-98250000D01*
G75*
G02*
X53250000Y-98000000I250000J0D01*
G01*
X56750000Y-98000000D01*
G75*
G02*
X57000000Y-98250000I0J-250000D01*
G01*
X57000000Y-101750000D01*
G75*
G02*
X56750000Y-102000000I-250000J0D01*
G01*
X53250000Y-102000000D01*
G75*
G02*
X53000000Y-101750000I0J250000D01*
G01*
G37*
D12*
X150000000Y-90000000D03*
D13*
X146825000Y-93175000D03*
X153175000Y-93175000D03*
X153175000Y-86825000D03*
X146825000Y-86825000D03*
D14*
X174110000Y-135750000D03*
D15*
X176650000Y-135750000D03*
X174110000Y-133210000D03*
X176650000Y-133210000D03*
X174110000Y-130670000D03*
X176650000Y-130670000D03*
X174110000Y-128130000D03*
X176650000Y-128130000D03*
X174110000Y-125590000D03*
X176650000Y-125590000D03*
X174110000Y-123050000D03*
X176650000Y-123050000D03*
X174110000Y-120510000D03*
X176650000Y-120510000D03*
X174110000Y-117970000D03*
X176650000Y-117970000D03*
X174110000Y-115430000D03*
X176650000Y-115430000D03*
X174110000Y-112890000D03*
X176650000Y-112890000D03*
X174110000Y-110350000D03*
X176650000Y-110350000D03*
X174110000Y-107810000D03*
X176650000Y-107810000D03*
X174110000Y-105270000D03*
X176650000Y-105270000D03*
X174110000Y-102730000D03*
X176650000Y-102730000D03*
X174110000Y-100190000D03*
X176650000Y-100190000D03*
X174110000Y-97650000D03*
X176650000Y-97650000D03*
X174110000Y-95110000D03*
X176650000Y-95110000D03*
X174110000Y-92570000D03*
X176650000Y-92570000D03*
X174110000Y-90030000D03*
X176650000Y-90030000D03*
X174110000Y-87490000D03*
X176650000Y-87490000D03*
D10*
X175000000Y-145000000D03*
X120000000Y-145000000D03*
G36*
G01*
X93000000Y-91750000D02*
X93000000Y-88250000D01*
G75*
G02*
X93250000Y-88000000I250000J0D01*
G01*
X96750000Y-88000000D01*
G75*
G02*
X97000000Y-88250000I0J-250000D01*
G01*
X97000000Y-91750000D01*
G75*
G02*
X96750000Y-92000000I-250000J0D01*
G01*
X93250000Y-92000000D01*
G75*
G02*
X93000000Y-91750000I0J250000D01*
G01*
G37*
D11*
X102200000Y-90000000D03*
D12*
X125000000Y-90000000D03*
D13*
X128175000Y-86825000D03*
X121825000Y-93175000D03*
X128175000Y-93175000D03*
X121825000Y-86825000D03*
D12*
X125000000Y-110000000D03*
D13*
X128175000Y-113175000D03*
X128175000Y-106825000D03*
X121825000Y-113175000D03*
X121825000Y-106825000D03*
D12*
X150000000Y-70000000D03*
D13*
X153175000Y-73175000D03*
X146825000Y-73175000D03*
X146825000Y-66825000D03*
X153175000Y-66825000D03*
D12*
X150000000Y-110000000D03*
D13*
X146825000Y-113175000D03*
X153175000Y-113175000D03*
X153175000Y-106825000D03*
X146825000Y-106825000D03*
D10*
X120000000Y-55000000D03*
G36*
G01*
X53000000Y-121750000D02*
X53000000Y-118250000D01*
G75*
G02*
X53250000Y-118000000I250000J0D01*
G01*
X56750000Y-118000000D01*
G75*
G02*
X57000000Y-118250000I0J-250000D01*
G01*
X57000000Y-121750000D01*
G75*
G02*
X56750000Y-122000000I-250000J0D01*
G01*
X53250000Y-122000000D01*
G75*
G02*
X53000000Y-121750000I0J250000D01*
G01*
G37*
X55000000Y-145000000D03*
M02*
